<svg width="26" height="26" viewBox="0 0 26 26" fill="none" xmlns="http://www.w3.org/2000/svg">
<path fill-rule="evenodd" clip-rule="evenodd" d="M3.04518 3.04531C2.1665 3.92399 2.1665 5.3382 2.1665 8.16662V17.8333C2.1665 20.6617 2.1665 22.0759 3.04518 22.9546C3.92386 23.8333 5.33807 23.8333 8.1665 23.8333H17.8332C20.6616 23.8333 22.0758 23.8333 22.9545 22.9546C23.8332 22.0759 23.8332 20.6617 23.8332 17.8333V8.16663C23.8332 5.3382 23.8332 3.92399 22.9545 3.04531C22.0758 2.16663 20.6616 2.16663 17.8332 2.16663H8.1665C5.33808 2.16663 3.92386 2.16663 3.04518 3.04531ZM19.2486 10.3047C19.5549 9.84513 19.4307 9.22426 18.9712 8.91791C18.5117 8.61156 17.8908 8.73573 17.5845 9.19526L14.207 14.2615L13.5816 13.0107C12.8948 11.6371 10.9804 11.518 10.1286 12.7957L6.75112 17.8619C6.44477 18.3215 6.56894 18.9423 7.02847 19.2487C7.488 19.555 8.10887 19.4309 8.41522 18.9713L11.7927 13.9051L12.4181 15.1559C13.1049 16.5294 15.0192 16.6486 15.8711 15.3709L19.2486 10.3047Z" fill="#FFFFE8"/>
</svg>
