<svg width="109" height="87" viewBox="0 0 109 87" fill="none" xmlns="http://www.w3.org/2000/svg">
<g opacity="0.5" filter="url(#filter0_d_1_2132)">
<rect x="21.3229" y="21.3229" width="66.3542" height="44.3542" rx="14.5521" fill="#343434" stroke="#D9D9D9" stroke-width="2.64583"/>
<path fill-rule="evenodd" clip-rule="evenodd" d="M36.4541 37.4939C37.3807 37.5715 38.3074 37.028 38.8865 36.3388C39.456 35.6303 39.8325 34.6791 39.7359 33.7085C38.9155 33.7473 37.9019 34.252 37.3228 34.9606C36.7919 35.5721 36.3382 36.5621 36.4541 37.4939ZM47.4778 49.9953V34.8635H53.1246C56.0397 34.8635 58.0764 36.8823 58.0764 39.833C58.0764 42.7836 56.0011 44.8219 53.0474 44.8219H49.8137V49.9953H47.4778ZM39.7264 37.6784C38.91 37.6312 38.1651 37.9253 37.5635 38.1629C37.1763 38.3157 36.8484 38.4452 36.5989 38.4452C36.319 38.4452 35.9776 38.3088 35.5943 38.1557C35.092 37.955 34.5177 37.7256 33.9155 37.7367C32.5352 37.7561 31.2514 38.5423 30.5467 39.7943C29.0989 42.2985 30.1703 46.0062 31.5699 48.0445C32.2553 49.0539 33.0757 50.1604 34.1568 50.1216C34.6324 50.1036 34.9746 49.9576 35.3287 49.8065C35.7363 49.6326 36.1597 49.4519 36.821 49.4519C37.4592 49.4519 37.8642 49.6279 38.2529 49.7968C38.6225 49.9574 38.9775 50.1117 39.5044 50.1022C40.6241 50.0828 41.3287 49.0928 42.0141 48.0833C42.7537 46.9999 43.0787 45.9426 43.128 45.7821L43.1338 45.7636C43.1326 45.7624 43.1235 45.7582 43.1073 45.7508C42.8601 45.637 40.9704 44.7671 40.9523 42.4344C40.9341 40.4765 42.4511 39.4845 42.6899 39.3283L42.69 39.3283C42.7045 39.3188 42.7143 39.3124 42.7187 39.309C41.7534 37.8725 40.2476 37.7172 39.7264 37.6784ZM62.3427 50.1119C63.8099 50.1119 65.1709 49.3645 65.7887 48.1804H65.837V49.9954H67.9991V42.4635C67.9991 40.2796 66.2617 38.8723 63.5879 38.8723C61.1072 38.8723 59.2732 40.2991 59.2056 42.2597H61.3099C61.4836 41.3279 62.3427 40.7164 63.5203 40.7164C64.9489 40.7164 65.7501 41.3861 65.7501 42.6188V43.4535L62.835 43.6282C60.1226 43.7932 58.6554 44.9094 58.6554 46.8507C58.6554 48.8113 60.1709 50.1119 62.3427 50.1119ZM62.9697 48.3163C61.7246 48.3163 60.933 47.7145 60.933 46.7924C60.933 45.8413 61.6956 45.288 63.1531 45.2006L65.7497 45.0356V45.8898C65.7497 47.3069 64.5528 48.3163 62.9697 48.3163ZM75.1713 50.5873C74.235 53.237 73.1635 54.1106 70.8855 54.1106C70.7118 54.1106 70.1326 54.0911 69.9975 54.0523V52.2373C70.1423 52.2567 70.4994 52.2761 70.6828 52.2761C71.7156 52.2761 72.2948 51.8393 72.6519 50.7037L72.8643 50.034L68.9067 39.0176H71.3488L74.0998 47.9569H74.1481L76.8991 39.0176H79.2736L75.1713 50.5873ZM49.8136 36.8436H52.5067C54.5337 36.8436 55.692 37.9307 55.692 39.8428C55.692 41.7549 54.5337 42.8517 52.497 42.8517H49.8136V36.8436Z" fill="#FFFFE8"/>
</g>
<defs>
<filter id="filter0_d_1_2132" x="0" y="0" width="109" height="87" filterUnits="userSpaceOnUse" color-interpolation-filters="sRGB">
<feFlood flood-opacity="0" result="BackgroundImageFix"/>
<feColorMatrix in="SourceAlpha" type="matrix" values="0 0 0 0 0 0 0 0 0 0 0 0 0 0 0 0 0 0 127 0" result="hardAlpha"/>
<feOffset/>
<feGaussianBlur stdDeviation="10"/>
<feComposite in2="hardAlpha" operator="out"/>
<feColorMatrix type="matrix" values="0 0 0 0 0 0 0 0 0 0 0 0 0 0 0 0 0 0 0.07 0"/>
<feBlend mode="normal" in2="BackgroundImageFix" result="effect1_dropShadow_1_2132"/>
<feBlend mode="normal" in="SourceGraphic" in2="effect1_dropShadow_1_2132" result="shape"/>
</filter>
</defs>
</svg>
