<svg width="108" height="86" viewBox="0 0 108 86" fill="none" xmlns="http://www.w3.org/2000/svg">
<g filter="url(#filter0_d_1_2135)">
<rect x="21.3229" y="21.3229" width="65.3542" height="43.3542" rx="14.5521" fill="#343434" stroke="#D9D9D9" stroke-width="2.64583"/>
<path fill-rule="evenodd" clip-rule="evenodd" d="M69.7902 43.1236C69.7902 51.6604 62.7756 58.5808 54.1226 58.5808C45.4697 58.5808 38.4551 51.6604 38.4551 43.1236C38.4551 34.5869 45.4697 27.6665 54.1226 27.6665C62.7756 27.6665 69.7902 34.5869 69.7902 43.1236ZM57.8868 37.3808C60.0662 38.1191 61.6604 39.2247 61.3477 41.2823C61.1205 42.7889 60.2708 43.5176 59.1417 43.7728C60.6907 44.5652 61.2186 46.0693 60.7281 47.8878C59.7967 50.5049 57.5829 50.7253 54.6383 50.1783L53.9233 52.9916L52.1973 52.5683L52.9024 49.7927C52.4549 49.6835 51.9976 49.5665 51.5265 49.4419L50.8184 52.231L49.0944 51.8077L49.8084 48.9886L46.3317 48.1266L47.1893 46.184C47.1893 46.184 48.462 46.5155 48.4443 46.4913C48.9331 46.6102 49.1504 46.2971 49.236 46.0893L51.1735 38.4535C51.1951 38.093 51.0682 37.6388 50.369 37.4668C50.3955 37.4484 49.115 37.1604 49.115 37.1604L49.5743 35.3484L53.0559 36.1959L53.764 33.4087L55.489 33.832L54.7957 36.5641C55.2599 36.6676 55.726 36.7729 56.1794 36.884L56.8679 34.1693L58.5939 34.5926L57.8868 37.3808ZM53.7569 42.0303C54.9327 42.3379 57.4911 43.007 57.937 41.2525C58.392 39.4573 55.9063 38.9151 54.6893 38.6497C54.5514 38.6196 54.4298 38.5931 54.3306 38.5687L53.471 41.957C53.5529 41.977 53.649 42.0021 53.7568 42.0303L53.7569 42.0303ZM52.4242 47.4856C53.8325 47.8516 56.9124 48.6519 57.4025 46.7186C57.9041 44.7417 54.9179 44.0833 53.4609 43.762C53.2981 43.7261 53.1544 43.6944 53.0367 43.6656L52.0887 47.3999C52.1849 47.4234 52.2977 47.4527 52.4239 47.4855L52.4242 47.4856L52.4242 47.4856Z" fill="#F7931A"/>
</g>
<defs>
<filter id="filter0_d_1_2135" x="0" y="0" width="108" height="86" filterUnits="userSpaceOnUse" color-interpolation-filters="sRGB">
<feFlood flood-opacity="0" result="BackgroundImageFix"/>
<feColorMatrix in="SourceAlpha" type="matrix" values="0 0 0 0 0 0 0 0 0 0 0 0 0 0 0 0 0 0 127 0" result="hardAlpha"/>
<feOffset/>
<feGaussianBlur stdDeviation="10"/>
<feComposite in2="hardAlpha" operator="out"/>
<feColorMatrix type="matrix" values="0 0 0 0 0 0 0 0 0 0 0 0 0 0 0 0 0 0 0.07 0"/>
<feBlend mode="normal" in2="BackgroundImageFix" result="effect1_dropShadow_1_2135"/>
<feBlend mode="normal" in="SourceGraphic" in2="effect1_dropShadow_1_2135" result="shape"/>
</filter>
</defs>
</svg>
