<svg width="108" height="87" viewBox="0 0 108 87" fill="none" xmlns="http://www.w3.org/2000/svg">
<g opacity="0.5" filter="url(#filter0_d_1_2133)">
<rect x="21.3229" y="21.3229" width="65.3542" height="44.3542" rx="14.5521" fill="#343434" stroke="#D9D9D9" stroke-width="2.64583"/>
<path fill-rule="evenodd" clip-rule="evenodd" d="M33.8709 46.9597C33.499 47.1677 33.1031 47.2715 32.6833 47.2715H32.3594C32.2753 47.2715 32.1551 47.2644 31.8081 47.2025L32.9814 42.1704C33.1973 41.9749 33.4301 41.8479 33.7001 41.7865C33.97 41.7254 34.1439 41.7089 34.312 41.7089C34.8276 41.7089 35.2266 41.8598 35.4186 42.1902C35.6104 42.5202 35.7065 42.9789 35.7065 43.5659C35.7065 44.0429 35.6284 44.5016 35.4726 44.9418C35.3166 45.382 35.1037 45.7764 34.8339 46.125C34.5639 46.4735 34.2427 46.7519 33.8709 46.9597ZM36.5163 39.7321C36.0961 39.5243 35.5985 39.4202 35.0226 39.4202C34.7465 39.4202 34.4886 39.4508 34.2488 39.512C34.0087 39.5733 33.7825 39.6525 33.5427 39.7625L34.6448 35.0359L31.8554 35.4761L28.7422 48.8126C29.09 48.984 29.4588 49.1184 29.8489 49.2161C30.2386 49.3139 30.6076 49.3872 30.9555 49.4363C31.3034 49.485 31.6125 49.5125 31.8824 49.5189C32.1524 49.5248 32.3413 49.528 32.4493 49.528C33.2889 49.528 34.0689 49.3657 34.7886 49.0418C35.5085 48.7179 36.1322 48.2777 36.6602 47.7211C37.1881 47.1646 37.605 46.5103 37.9109 45.7582C38.2169 45.0061 38.3698 44.2081 38.3698 43.3642C38.3698 42.814 38.3036 42.3003 38.1718 41.8234C38.0397 41.3463 37.8358 40.9307 37.56 40.5759C37.2839 40.2213 36.936 39.9401 36.5163 39.7321ZM43.8943 38.2429L44.3042 36.4854H41.632L41.2222 38.2429H43.8943ZM46.949 47.0484C47.1454 47.1489 47.4161 47.1988 47.7604 47.1988C48.0555 47.1988 48.3413 47.1706 48.6179 47.1142C48.7989 47.0774 48.9866 47.0339 49.1735 46.9689L48.617 49.3418C48.5732 49.3526 48.5057 49.3692 48.4612 49.3796C48.0307 49.4798 47.5206 49.53 46.9305 49.53C46.082 49.53 45.4241 49.4014 44.9571 49.1446C44.4896 48.8879 44.1577 48.5369 43.9611 48.0918C43.7643 47.647 43.6781 47.1363 43.703 46.5596C43.7275 45.9833 43.8136 45.3751 43.9611 44.7359L45.7686 36.9526L48.6272 36.5013L47.9263 39.4154H50.9879L50.4346 41.7091H47.3916L46.5801 45.1684C46.5063 45.4569 46.4602 45.7262 46.4417 45.9767C46.4234 46.2276 46.4538 46.4439 46.534 46.6254C46.6138 46.8072 46.752 46.9482 46.949 47.0484ZM80.2282 39.4185H77.5562L76.002 46.0841H76.0047L75.7912 47.001C75.6421 47.0436 75.4936 47.082 75.3463 47.1121C75.0697 47.1685 74.7838 47.1967 74.4887 47.1967C74.1443 47.1967 73.8738 47.1467 73.6772 47.0463C73.4804 46.9461 73.3421 46.8052 73.2622 46.6232C73.1821 46.4417 73.1516 46.2255 73.1701 45.9746C73.1885 45.7241 73.2346 45.4547 73.3084 45.1662L74.1198 41.7069L74.6547 39.4133L74.6548 39.4126H71.9251L70.6895 44.7339C70.542 45.3731 70.4558 45.9811 70.4313 46.5575C70.4065 47.1341 70.4926 47.645 70.6895 48.0897C70.886 48.5347 71.218 48.8859 71.6854 49.1426C72.1525 49.3992 72.8104 49.528 73.6587 49.528C74.2489 49.528 74.7591 49.4778 75.1896 49.3775C75.207 49.3735 75.2237 49.3692 75.2407 49.3649L75.2394 49.3699C75.1198 49.9189 74.8776 50.3641 74.4888 50.7116C74.0997 51.0594 73.5222 51.2333 72.7566 51.2333C72.4296 51.2333 72.1326 51.2135 71.8635 51.1755L71.3376 53.4311C71.6933 53.478 72.0876 53.5023 72.5232 53.5023C73.3368 53.5023 74.0491 53.4075 74.6594 53.2185C75.2698 53.0294 75.7931 52.7428 76.23 52.3584C76.6667 51.9742 77.0317 51.4921 77.325 50.9131C77.6181 50.3334 77.8545 49.6475 78.034 48.8544L79.883 40.9311L79.8763 40.9282L80.2282 39.4185ZM38.5867 49.5301L40.9456 39.4129H43.6178L41.2588 49.5301H38.5867ZM53.3843 47.2029C53.5895 47.2523 53.8427 47.2768 54.1445 47.2768C54.6149 47.2768 55.043 47.1877 55.4293 47.0093C55.8152 46.8312 56.144 46.5822 56.4154 46.2622C56.6869 45.9425 56.8977 45.5584 57.0487 45.1093C57.1994 44.6605 57.2749 44.1657 57.2749 43.6245C57.2749 43.0959 57.1602 42.6468 56.9312 42.2779C56.7018 41.9089 56.2999 41.7128 55.7329 41.7105C55.3366 41.709 54.6783 41.709 54.6783 41.709L53.3843 47.2029ZM59.9535 43.4216C59.9535 44.3195 59.8088 45.1403 59.5192 45.8841C59.2298 46.6284 58.8286 47.2709 58.316 47.8117C57.803 48.3531 57.1878 48.7742 56.4702 49.0754C55.7524 49.3765 54.9712 49.5273 54.1268 49.5273C53.7165 49.5273 53.3063 49.4904 52.8963 49.4166L52.082 52.7553H49.4039L52.5126 39.4188C52.8373 39.4186 54.1618 39.4187 55.1511 39.4188L56.0812 39.4188C56.7566 39.4188 57.3388 39.5235 57.8273 39.7324C58.316 39.9416 58.7168 40.2275 59.0307 40.5901C59.3442 40.953 59.5763 41.3773 59.7274 41.8628C59.878 42.3489 59.9535 42.8683 59.9535 43.4216ZM67.1217 41.7093C65.8758 41.7093 65.6379 41.7093 65.1273 41.9792C64.765 42.1707 64.465 42.4586 64.2015 42.7945C63.9378 43.1305 63.7312 43.5182 63.5815 43.9579C63.4315 44.3979 63.3567 44.8558 63.3567 45.3322C63.3567 45.9185 63.4525 46.3829 63.6445 46.7248C63.8359 47.0669 64.1896 47.2377 64.7049 47.2377C64.9804 47.2377 65.229 47.1829 65.4509 47.0729C65.6724 46.963 65.9092 46.7796 66.1608 46.5232C66.1847 46.218 66.2238 45.8974 66.2777 45.5612C66.3269 45.2544 66.3883 44.9679 66.4443 44.7061L66.4443 44.706L66.4444 44.7059L66.46 44.6329L67.1217 41.7093ZM69.0188 45.1122C68.8508 45.8086 68.8029 46.5078 68.8748 47.2102C68.9469 47.9129 69.2104 48.9893 69.4675 49.5281H66.8817C66.6463 49.1223 66.5942 48.8771 66.5583 48.7077C66.5459 48.6497 66.5355 48.6006 66.5203 48.5569C66.1847 48.8381 65.8132 49.07 65.4059 49.2532C64.9984 49.4364 64.543 49.5281 64.0397 49.5281C63.4405 49.5281 62.9282 49.421 62.503 49.2075C62.0774 48.9938 61.73 48.7067 61.4604 48.3463C61.1907 47.9862 60.9958 47.5647 60.8763 47.0821C60.7563 46.5996 60.6965 46.0834 60.6965 45.5337C60.6965 44.6908 60.843 43.8969 61.1369 43.1518C61.4304 42.4067 61.8379 41.7562 62.3592 41.2002C62.8803 40.6445 64.1384 39.4188 66.2027 39.4188L70.3482 39.4187L69.0188 45.1122Z" fill="#002855"/>
</g>
<defs>
<filter id="filter0_d_1_2133" x="0" y="0" width="108" height="87" filterUnits="userSpaceOnUse" color-interpolation-filters="sRGB">
<feFlood flood-opacity="0" result="BackgroundImageFix"/>
<feColorMatrix in="SourceAlpha" type="matrix" values="0 0 0 0 0 0 0 0 0 0 0 0 0 0 0 0 0 0 127 0" result="hardAlpha"/>
<feOffset/>
<feGaussianBlur stdDeviation="10"/>
<feComposite in2="hardAlpha" operator="out"/>
<feColorMatrix type="matrix" values="0 0 0 0 0 0 0 0 0 0 0 0 0 0 0 0 0 0 0.07 0"/>
<feBlend mode="normal" in2="BackgroundImageFix" result="effect1_dropShadow_1_2133"/>
<feBlend mode="normal" in="SourceGraphic" in2="effect1_dropShadow_1_2133" result="shape"/>
</filter>
</defs>
</svg>
