<svg width="29" height="29" viewBox="0 0 29 29" fill="none" xmlns="http://www.w3.org/2000/svg">
<path d="M4.83325 8.87259C4.83325 8.66821 4.83325 8.56602 4.87131 8.47414C4.90937 8.38225 4.98163 8.31 5.12615 8.16548L7.28668 6.00495C7.86474 5.42689 8.15377 5.13786 8.52131 4.98561C8.88885 4.83337 9.29761 4.83337 10.1151 4.83337H18.8847C19.7022 4.83337 20.111 4.83337 20.4785 4.98561C20.8461 5.13786 21.1351 5.42689 21.7132 6.00495L23.8737 8.16548C24.0182 8.31 24.0905 8.38225 24.1285 8.47414C24.1666 8.56602 24.1666 8.66821 24.1666 8.87259V9.66671H4.83325V8.87259Z" stroke="#FFFFE8" stroke-width="2"/>
<path fill-rule="evenodd" clip-rule="evenodd" d="M25.375 9.66663H3.625V21.375C3.625 23.2606 3.625 24.2034 4.21079 24.7892C4.79657 25.375 5.73938 25.375 7.625 25.375H21.375C23.2606 25.375 24.2034 25.375 24.7892 24.7892C25.375 24.2034 25.375 23.2606 25.375 21.375V9.66663ZM11.875 13.2916C11.875 12.7393 11.4273 12.2916 10.875 12.2916C10.3227 12.2916 9.875 12.7393 9.875 13.2916C9.875 14.5183 10.3623 15.6946 11.2296 16.562C12.097 17.4294 13.2734 17.9166 14.5 17.9166C15.7266 17.9166 16.903 17.4294 17.7704 16.562C18.6377 15.6946 19.125 14.5183 19.125 13.2916C19.125 12.7393 18.6773 12.2916 18.125 12.2916C17.5727 12.2916 17.125 12.7393 17.125 13.2916C17.125 13.9878 16.8484 14.6555 16.3562 15.1478C15.8639 15.6401 15.1962 15.9166 14.5 15.9166C13.8038 15.9166 13.1361 15.6401 12.6438 15.1478C12.1516 14.6555 11.875 13.9878 11.875 13.2916Z" fill="#FFFFE8"/>
</svg>
