<svg width="23" height="18" viewBox="0 0 23 18" fill="none" xmlns="http://www.w3.org/2000/svg">
<path fill-rule="evenodd" clip-rule="evenodd" d="M2.54531 2.30008C1.66663 3.17876 1.66663 4.59297 1.66663 7.4214V9.63545C1.66663 12.4639 1.66663 13.8781 2.54531 14.7568C3.42399 15.6355 4.8382 15.6355 7.66663 15.6355H12.3333C15.1617 15.6355 16.5759 15.6355 17.4546 14.7568C18.3333 13.8781 18.3333 12.4639 18.3333 9.63545V7.4214C18.3333 4.59297 18.3333 3.17876 17.4546 2.30008C16.5759 1.4214 15.1617 1.4214 12.3333 1.4214H7.66663C4.8382 1.4214 3.42399 1.4214 2.54531 2.30008ZM14.9545 7.01218C15.2946 6.57706 15.2176 5.9486 14.7825 5.60847C14.3474 5.26833 13.7189 5.34534 13.3788 5.78045L10.9517 8.88531L10.7736 8.58142L9.91088 9.08719L10.7736 8.58142C10.0594 7.36335 8.34209 7.24879 7.4725 8.36122L5.04544 11.4661C4.70531 11.9012 4.78231 12.5297 5.21743 12.8698C5.65255 13.2099 6.28102 13.1329 6.62115 12.6978L9.04821 9.59295L9.22637 9.89683C9.9405 11.1149 11.6578 11.2295 12.5274 10.117L14.9545 7.01218Z" fill="#FF7EAB"/>
</svg>
