<svg width="35" height="35" viewBox="0 0 35 35" fill="none" xmlns="http://www.w3.org/2000/svg">
<path fill-rule="evenodd" clip-rule="evenodd" d="M26.8243 8.37086L19.2232 5.11326C18.1227 4.64161 16.877 4.64161 15.7764 5.11326L8.17537 8.37086C7.63917 8.60066 7.2915 9.12791 7.2915 9.71128V17.3718C7.2915 20.1976 8.6562 22.8494 10.9557 24.4919L15.8046 27.9554C16.8187 28.6798 18.181 28.6798 19.1951 27.9554L24.044 24.4919C26.3435 22.8494 27.7082 20.1976 27.7082 17.3718V9.71128C27.7082 9.12791 27.3605 8.60067 26.8243 8.37086ZM22.6557 13.7497C23.0007 13.3184 22.9308 12.6891 22.4995 12.3441C22.0683 11.9991 21.439 12.069 21.094 12.5003L15.9586 18.9195L13.8319 16.7929C13.4414 16.4024 12.8083 16.4024 12.4177 16.7929C12.0272 17.1834 12.0272 17.8166 12.4177 18.2071L14.9394 20.7288C15.5716 21.3609 16.6129 21.3033 17.1713 20.6051L22.6557 13.7497Z" fill="#FFFFE8"/>
</svg>
