<svg width="26" height="26" viewBox="0 0 26 26" fill="none" xmlns="http://www.w3.org/2000/svg">
<g opacity="0.5">
<path d="M5.71428 6.36779L6.1082 7.28693L5.71428 6.36779C4.89505 6.71889 4.40702 7.56973 4.51757 8.45415L5.21389 14.0247C5.43404 15.7859 6.31501 17.3977 7.67854 18.534L11.7195 21.9014C12.4612 22.5195 13.5385 22.5195 14.2802 21.9014L18.3211 18.534C19.6847 17.3977 20.5656 15.7859 20.7858 14.0247L21.4821 8.45415C21.5927 7.56973 21.1046 6.71889 20.2854 6.36779L13.7877 3.58305C13.2846 3.36744 12.7151 3.36744 12.212 3.58305L5.71428 6.36779Z" stroke="#FFFFE8" stroke-width="2" stroke-linecap="round"/>
<path d="M9.75016 13L12.5689 15.8187C12.792 16.0418 13.1635 16.0051 13.3385 15.7425L17.3335 9.75" stroke="#FFFFE8" stroke-width="2" stroke-linecap="round"/>
</g>
</svg>
