<svg width="43" height="41" viewBox="0 0 43 41" fill="none" xmlns="http://www.w3.org/2000/svg">
<path d="M20.7574 5.70535L9.54636 11.1033C8.73386 11.4945 8.32761 11.6901 8.32761 12.0043C8.32761 12.3185 8.73386 12.5141 9.54636 12.9053L20.7574 18.3032C21.1837 18.5084 21.3968 18.6111 21.625 18.6111C21.8533 18.6111 22.0664 18.5084 22.4927 18.3032L33.7037 12.9053C34.5162 12.5141 34.9225 12.3185 34.9225 12.0043C34.9225 11.6901 34.5162 11.4945 33.7037 11.1033L22.4927 5.70535C22.0664 5.5001 21.8533 5.39747 21.625 5.39747C21.3968 5.39747 21.1837 5.5001 20.7574 5.70535Z" fill="#7D83FF"/>
<path fill-rule="evenodd" clip-rule="evenodd" d="M12.9059 17.8818L19.8898 21.2444C20.7424 21.6549 21.1687 21.8602 21.6251 21.8602C22.0815 21.8602 22.5078 21.6549 23.3603 21.2444L30.3442 17.8818L33.7038 19.4994C34.5163 19.8906 34.9225 20.0862 34.9225 20.4004C34.9225 20.7146 34.5163 20.9102 33.7038 21.3014L22.4927 26.6993C22.0664 26.9046 21.8533 27.0072 21.6251 27.0072C21.3969 27.0072 21.1837 26.9046 20.7574 26.6993L9.54639 21.3014L9.54638 21.3014C8.73389 20.9102 8.32764 20.7146 8.32764 20.4004C8.32764 20.0862 8.73389 19.8906 9.54638 19.4994L12.9059 17.8818Z" fill="#7D83FF"/>
<path fill-rule="evenodd" clip-rule="evenodd" d="M12.9051 26.2778L19.8898 29.6409C20.7424 30.0514 21.1687 30.2566 21.6251 30.2566C22.0815 30.2566 22.5078 30.0514 23.3604 29.6409L30.3451 26.2778L33.7038 27.895C34.5163 28.2862 34.9225 28.4818 34.9225 28.796C34.9225 29.1102 34.5163 29.3058 33.7038 29.697L22.4927 35.0949C22.0664 35.3001 21.8533 35.4028 21.6251 35.4028C21.3969 35.4028 21.1837 35.3001 20.7574 35.0949L9.54639 29.697L9.54638 29.697C8.73389 29.3058 8.32764 29.1102 8.32764 28.796C8.32764 28.4818 8.73389 28.2862 9.54638 27.895L12.9051 26.2778Z" fill="#7D83FF"/>
</svg>
