<svg width="16" height="16" viewBox="0 0 16 16" fill="none" xmlns="http://www.w3.org/2000/svg">
<path fill-rule="evenodd" clip-rule="evenodd" d="M7.46497 0.00494649C7.60691 -0.00164883 7.74911 -0.00164883 7.89105 0.00494649C8.43898 0.0304073 8.94344 0.179416 9.50579 0.423655C10.0533 0.661427 10.6894 1.00518 11.4942 1.44006L11.5398 1.46468C12.3446 1.89956 12.9808 2.24331 13.4745 2.56816C13.9817 2.90184 14.3718 3.23621 14.6693 3.6676C14.7464 3.77934 14.8175 3.89459 14.8824 4.01294C15.1328 4.46978 15.2471 4.95316 15.3023 5.53108C15.356 6.09369 15.356 6.78117 15.356 7.65092V7.70021C15.356 8.56995 15.356 9.25748 15.3023 9.82009C15.2471 10.398 15.1328 10.8814 14.8824 11.3382C14.8175 11.4566 14.7464 11.5718 14.6693 11.6836C14.3718 12.115 13.9817 12.4493 13.4745 12.783C12.9808 13.1079 12.3446 13.4516 11.5398 13.8865L11.4942 13.9111C10.6894 14.346 10.0533 14.6897 9.50579 14.9275C8.94344 15.1718 8.43898 15.3208 7.89105 15.3462C7.74911 15.3528 7.60691 15.3528 7.46497 15.3462C6.91704 15.3208 6.41258 15.1718 5.85023 14.9275C5.30276 14.6897 4.66661 14.346 3.86178 13.9111L3.81617 13.8865C3.01142 13.4516 2.3752 13.1078 1.88149 12.783C1.37431 12.4493 0.984199 12.115 0.686672 11.6836C0.609601 11.5718 0.538501 11.4566 0.473636 11.3382C0.223227 10.8814 0.108882 10.398 0.0537061 9.82009C-8.32788e-06 9.25747 -4.58907e-06 8.56998 8.70125e-08 7.70021V7.65096C-4.58907e-06 6.78119 -8.32788e-06 6.0937 0.0537061 5.53108C0.108882 4.95316 0.223227 4.46978 0.473636 4.01294C0.538501 3.8946 0.609601 3.77934 0.686672 3.6676C0.984199 3.23621 1.37431 2.90184 1.88149 2.56816C2.37524 2.24331 3.01139 1.89957 3.81622 1.46469L3.8618 1.44006C4.66661 1.00518 5.30277 0.661427 5.85023 0.423655C6.41258 0.179416 6.91704 0.0304073 7.46497 0.00494649ZM10.0593 5.44687C10.2782 5.65168 10.2782 5.98375 10.0593 6.18856L5.83275 10.1443C5.61391 10.3491 5.25911 10.3491 5.04027 10.1443C4.82143 9.93944 4.82143 9.60737 5.04027 9.40256L9.26683 5.44687C9.48567 5.24205 9.84048 5.24205 10.0593 5.44687ZM5.4366 6.277C5.02396 6.277 4.68944 5.96392 4.68944 5.57772C4.68944 5.19152 5.02396 4.87845 5.4366 4.87845C5.84924 4.87845 6.18376 5.19152 6.18376 5.57772C6.18376 5.96392 5.84924 6.277 5.4366 6.277ZM9.91955 10.4726C9.50691 10.4726 9.17239 10.1596 9.17239 9.77337C9.17239 9.38717 9.50691 9.07409 9.91955 9.07409C10.3322 9.07409 10.6667 9.38717 10.6667 9.77337C10.6667 10.1596 10.3322 10.4726 9.91955 10.4726Z" fill="#007FFF"/>
</svg>
