<svg width="30" height="26" viewBox="0 0 30 26" fill="none" xmlns="http://www.w3.org/2000/svg">
<path d="M7.5 5.91667V14.0833H13.1724C13.4543 14.0833 13.5952 14.0833 13.7113 14.1504C13.8273 14.2174 13.8978 14.3395 14.0386 14.5836L14.7114 15.7497C14.8522 15.9939 14.9227 16.1159 15.0387 16.183C15.1548 16.25 15.2957 16.25 15.5776 16.25H22C22.2357 16.25 22.3536 16.25 22.4268 16.1768C22.5 16.1036 22.5 15.9857 22.5 15.75V8.08334C22.5 7.84764 22.5 7.72978 22.4268 7.65656C22.3536 7.58334 22.2357 7.58334 22 7.58334H15.5776C15.2957 7.58334 15.1548 7.58334 15.0387 7.51631C14.9227 7.44928 14.8522 7.32721 14.7114 7.08306L14.0386 5.91695C13.8978 5.6728 13.8273 5.55073 13.7113 5.4837C13.5952 5.41667 13.4543 5.41667 13.1724 5.41667H8C7.7643 5.41667 7.64645 5.41667 7.57322 5.4899C7.5 5.56312 7.5 5.68097 7.5 5.91667Z" fill="#FFFFE8"/>
<path d="M7.5 14.0833V5.91667C7.5 5.68097 7.5 5.56312 7.57322 5.4899C7.64645 5.41667 7.7643 5.41667 8 5.41667H13.1724C13.4543 5.41667 13.5952 5.41667 13.7113 5.4837C13.8273 5.55073 13.8978 5.6728 14.0386 5.91695L14.7114 7.08306C14.8522 7.32721 14.9227 7.44928 15.0387 7.51631C15.1548 7.58334 15.2957 7.58334 15.5776 7.58334H22C22.2357 7.58334 22.3536 7.58334 22.4268 7.65656C22.5 7.72978 22.5 7.84764 22.5 8.08334V15.75C22.5 15.9857 22.5 16.1036 22.4268 16.1768C22.3536 16.25 22.2357 16.25 22 16.25H15.5776C15.2957 16.25 15.1548 16.25 15.0387 16.183C14.9227 16.1159 14.8522 15.9939 14.7114 15.7497L14.0386 14.5836C13.8978 14.3395 13.8273 14.2174 13.7113 14.1504C13.5952 14.0833 13.4543 14.0833 13.1724 14.0833H7.5ZM7.5 14.0833V20.5833" stroke="#FFFFE8" stroke-width="2" stroke-linecap="round"/>
</svg>
