<svg width="30" height="30" viewBox="0 0 30 30" fill="none" xmlns="http://www.w3.org/2000/svg">
<path fill-rule="evenodd" clip-rule="evenodd" d="M15 26.25C21.2132 26.25 26.25 21.2132 26.25 15C26.25 8.7868 21.2132 3.75 15 3.75C8.7868 3.75 3.75 8.7868 3.75 15C3.75 21.2132 8.7868 26.25 15 26.25ZM15 6.5C15.5523 6.5 16 6.94772 16 7.5V11.25C16 11.8023 15.5523 12.25 15 12.25C14.4477 12.25 14 11.8023 14 11.25V7.5C14 6.94772 14.4477 6.5 15 6.5ZM19.5962 8.98959C19.9867 8.59907 20.6199 8.59907 21.0104 8.98959C22.1992 10.1783 23.0087 11.6929 23.3367 13.3417C23.6646 14.9906 23.4963 16.6996 22.853 18.2528C22.2096 19.806 21.1202 21.1335 19.7223 22.0675C18.3245 23.0015 16.6811 23.5 15 23.5C13.3189 23.5 11.6755 23.0015 10.2776 22.0675C8.87983 21.1335 7.79036 19.806 7.14702 18.2528C6.50367 16.6996 6.33535 14.9906 6.66332 13.3417C6.99129 11.6929 7.80084 10.1783 8.98959 8.98959C9.38011 8.59907 10.0133 8.59907 10.4038 8.98959C10.7943 9.38012 10.7943 10.0133 10.4038 10.4038C9.49476 11.3128 8.8757 12.471 8.62489 13.7319C8.37409 14.9928 8.50281 16.2997 8.99478 17.4874C9.48675 18.6752 10.3199 19.6903 11.3888 20.4046C12.4577 21.1188 13.7144 21.5 15 21.5C16.2856 21.5 17.5423 21.1188 18.6112 20.4046C19.6801 19.6903 20.5132 18.6752 21.0052 17.4874C21.4972 16.2997 21.6259 14.9928 21.3751 13.7319C21.1243 12.471 20.5052 11.3128 19.5962 10.4038C19.2057 10.0133 19.2057 9.38012 19.5962 8.98959Z" fill="#FFFFE8"/>
</svg>
