<svg width="39" height="17" viewBox="0 0 39 17" fill="none" xmlns="http://www.w3.org/2000/svg">
<path fill-rule="evenodd" clip-rule="evenodd" d="M38.7962 8.50252C38.7962 5.69031 37.4599 3.4713 34.9058 3.4713C32.3409 3.4713 30.7891 5.69031 30.7891 8.48055C30.7891 11.7871 32.6211 13.4568 35.2506 13.4568C36.5331 13.4568 37.503 13.1602 38.2358 12.7428V10.5458C37.503 10.9193 36.6624 11.15 35.5955 11.15C34.5501 11.15 33.6233 10.7765 33.5048 9.4802H38.7746C38.7746 9.3374 38.7962 8.76617 38.7962 8.50252ZM33.4723 7.45886C33.4723 6.21754 34.2159 5.70123 34.8949 5.70123C35.5522 5.70123 36.2527 6.21754 36.2527 7.45886H33.4723Z" fill="#C2C0FF"/>
<path fill-rule="evenodd" clip-rule="evenodd" d="M26.6291 3.4713C25.573 3.4713 24.894 3.97662 24.5168 4.32815L24.3767 3.64706H22.0059V16.4558L24.7 15.8736L24.7108 12.7648C25.0988 13.0504 25.67 13.4569 26.6183 13.4569C28.5473 13.4569 30.304 11.875 30.304 8.39268C30.2932 5.20696 28.515 3.4713 26.6291 3.4713ZM25.9825 11.04C25.3467 11.04 24.9695 10.8093 24.7109 10.5237L24.7001 6.44822C24.9803 6.12965 25.3682 5.90995 25.9825 5.90995C26.9632 5.90995 27.6421 7.03043 27.6421 8.46949C27.6421 9.94151 26.974 11.04 25.9825 11.04Z" fill="#C2C0FF"/>
<path fill-rule="evenodd" clip-rule="evenodd" d="M18.2988 2.82319L21.0038 2.22999V0L18.2988 0.582215V2.82319Z" fill="#C2C0FF"/>
<rect x="18.2987" y="3.65805" width="2.70498" height="9.61204" fill="#C2C0FF"/>
<path fill-rule="evenodd" clip-rule="evenodd" d="M15.4 4.47098L15.2276 3.65807H12.8998V13.2701H15.594V6.7559C16.2298 5.91004 17.3075 6.06383 17.6415 6.18467V3.65807C17.2967 3.52625 16.0358 3.28458 15.4 4.47098Z" fill="#C2C0FF"/>
<path fill-rule="evenodd" clip-rule="evenodd" d="M10.0115 1.27428L7.38199 1.84551L7.37122 10.6447C7.37122 12.2705 8.56744 13.4679 10.1624 13.4679C11.0461 13.4679 11.6927 13.3031 12.0483 13.1053V10.8753C11.7035 11.0182 10.0007 11.5235 10.0007 9.89766V5.99791H12.0483V3.65807H10.0007L10.0115 1.27428Z" fill="#C2C0FF"/>
<path fill-rule="evenodd" clip-rule="evenodd" d="M2.72652 6.44829C2.72652 6.01987 3.07138 5.85509 3.64254 5.85509C4.46158 5.85509 5.49615 6.10775 6.31518 6.55814V3.97662C5.42071 3.61411 4.53702 3.4713 3.64254 3.4713C1.45486 3.4713 0 4.63573 0 6.58011C0 9.61203 4.09517 9.12868 4.09517 10.4359C4.09517 10.9412 3.6641 11.106 3.0606 11.106C2.16613 11.106 1.02379 10.7325 0.118544 10.2272V12.8417C1.12078 13.2811 2.1338 13.4678 3.0606 13.4678C5.30217 13.4678 6.84324 12.3364 6.84324 10.37C6.83246 7.09642 2.72652 7.67863 2.72652 6.44829Z" fill="#C2C0FF"/>
</svg>
