<svg width="52" height="21" viewBox="0 0 52 21" fill="none" xmlns="http://www.w3.org/2000/svg">
<path d="M11.7123 11.5429C11.0539 14.2589 8.36767 15.9148 5.71218 15.2413C3.05669 14.5674 1.43835 11.8195 2.09673 9.10351C2.75512 6.38712 5.4414 4.73122 8.09689 5.40514C8.10153 5.40644 8.10575 5.4073 8.11039 5.40859C10.7587 6.08855 12.3699 8.83213 11.7123 11.5429Z" fill="#F7931A"/>
<path d="M8.02814 9.58519C7.87335 10.2186 6.929 9.89411 6.62279 9.81645L6.89357 8.70806C7.19556 8.78399 8.18293 8.92982 8.0235 9.58519H8.02814ZM7.85943 11.3761C7.69241 12.0664 6.55615 11.6928 6.18752 11.5992L6.48614 10.3752C6.85477 10.4701 8.03405 10.6556 7.85901 11.3761H7.85943ZM9.09776 9.59468C9.19519 8.9199 8.6937 8.55748 8.01422 8.31674L8.23692 7.40293L7.68735 7.26357L7.47056 8.15365C7.328 8.11741 7.18122 8.08246 7.03571 8.04924L7.2525 7.14967L6.70925 7.01031L6.48656 7.92412L6.13986 7.84517L5.3891 7.6536L5.24528 8.24727C5.24528 8.24727 5.64765 8.34219 5.64006 8.34866C5.79358 8.36765 5.90577 8.50744 5.89396 8.66535L5.64006 9.70557C5.65904 9.70988 5.67802 9.71635 5.69573 9.72455L5.63837 9.70859L5.28366 11.1669C5.25034 11.2734 5.13899 11.3321 5.03439 11.2985C5.03439 11.3062 4.63792 11.1988 4.63792 11.1988L4.36841 11.8322L5.07572 12.0112L5.46249 12.1143L5.23811 13.0376L5.78135 13.177L6.00405 12.2632C6.1504 12.3042 6.29465 12.3421 6.43594 12.3771L6.2162 13.2939L6.75944 13.4315L6.98383 12.51C7.91257 12.689 8.60766 12.6174 8.90164 11.7593C9.13867 11.0689 8.8894 10.6716 8.40183 10.4118C8.75781 10.3281 9.021 10.0952 9.09692 9.59468H9.09776Z" fill="#343434"/>
<path d="M14.8465 13.8005C15.1358 13.8013 15.4205 13.7258 15.6732 13.5817C15.933 13.4398 16.162 13.2448 16.3451 13.0083C16.5357 12.7585 16.6859 12.4789 16.7892 12.1804C16.8984 11.8715 16.9537 11.5457 16.9533 11.2178C16.9706 10.8847 16.901 10.553 16.7521 10.2566C16.6188 10.027 16.3712 9.90968 16.0123 9.90968C15.8558 9.91529 15.7002 9.93686 15.5479 9.97439C15.359 10.0175 15.1839 10.1103 15.0401 10.2436L14.2198 13.7526L14.3513 13.778C14.3906 13.788 14.4306 13.7944 14.4703 13.797C14.5217 13.8035 14.5732 13.8061 14.6251 13.8048L14.8465 13.8V13.8005ZM16.4767 8.31548C16.8352 8.30685 17.1907 8.38192 17.5168 8.53422C17.7998 8.67229 18.0486 8.8742 18.2443 9.12487C18.4447 9.38417 18.5919 9.68187 18.6779 10.0003C18.7715 10.3515 18.8179 10.7143 18.8158 11.0785C18.8154 12.2119 18.386 13.3004 17.6176 14.1172C17.2451 14.508 16.8019 14.8208 16.3126 15.0387C15.7997 15.2695 15.2447 15.3873 14.6841 15.3839H14.2877C14.0721 15.3765 13.857 15.3576 13.6436 15.3269C13.383 15.2881 13.1244 15.2355 12.8697 15.1686C12.6023 15.1039 12.3429 15.0094 12.0957 14.8869L14.2708 5.56673L16.2135 5.25005L15.4395 8.55795C15.6006 8.48331 15.7681 8.42334 15.9393 8.3789C16.1161 8.33489 16.2978 8.31289 16.4796 8.31418L16.4767 8.31591V8.31548Z" fill="#4D4D4D"/>
<path d="M21.7257 7.63597C21.4726 7.63855 21.2254 7.55529 21.023 7.39996C20.8083 7.22609 20.6919 6.95428 20.7134 6.6747C20.7126 6.5004 20.7488 6.32782 20.8201 6.16948C20.8884 6.01502 20.9842 5.87566 21.1035 5.75788C21.2225 5.64225 21.3604 5.54906 21.5106 5.48218C21.667 5.41358 21.8357 5.37863 22.0057 5.37907C22.2571 5.3782 22.5017 5.4619 22.7025 5.61636C22.9168 5.79067 23.0327 6.06205 23.0121 6.34162C23.0133 6.51636 22.9775 6.68937 22.9071 6.84814C22.8387 7.00174 22.7434 7.14066 22.6253 7.25802C22.5068 7.37408 22.3689 7.46727 22.2183 7.53371C22.0618 7.60231 21.8931 7.63683 21.7231 7.6351H21.7261L21.7257 7.63597ZM20.8231 15.2031H18.9656L20.535 8.45744H22.4035L20.8231 15.2031Z" fill="#4D4D4D"/>
<path d="M24.029 6.77779L25.9717 6.4706L25.4888 8.45784H27.5694L27.1944 10.0223H25.1311L24.5803 12.3754C24.5326 12.5557 24.5031 12.7404 24.4921 12.9268C24.4807 13.0773 24.5027 13.2288 24.5554 13.3699C24.6073 13.4963 24.703 13.5985 24.8249 13.6563C24.9999 13.7353 25.191 13.7715 25.3821 13.7608C25.5782 13.7616 25.7735 13.7418 25.9658 13.7021C26.159 13.6633 26.3496 13.6106 26.5356 13.5437L26.6748 15.0068C26.4082 15.1047 26.1358 15.1858 25.8591 15.2493C25.5174 15.3235 25.1682 15.358 24.819 15.3524C24.2416 15.3524 23.7958 15.2635 23.4769 15.0896C23.1787 14.9343 22.9396 14.6815 22.7991 14.3708C22.6616 14.0412 22.6017 13.6831 22.6241 13.3259C22.6447 12.9065 22.7034 12.4897 22.7991 12.0811L24.0298 6.77218V6.77865L24.029 6.77779Z" fill="#4D4D4D"/>
<path d="M27.5011 12.51C27.4973 11.9504 27.5905 11.3943 27.7765 10.8679C27.9511 10.3705 28.2193 9.9127 28.566 9.52052C28.9153 9.13178 29.3404 8.822 29.8137 8.61146C30.3299 8.38365 30.8875 8.26975 31.4497 8.27752C31.7892 8.2732 32.1279 8.30988 32.459 8.38667C32.7374 8.45398 33.0082 8.55062 33.2671 8.67488L32.6218 10.1586C32.4548 10.0892 32.281 10.0292 32.1018 9.97354C31.8875 9.9127 31.6661 9.88423 31.4438 9.88984C30.8824 9.86913 30.3426 10.1116 29.9777 10.5487C29.6154 10.9844 29.4336 11.5703 29.4328 12.3064C29.4159 12.6796 29.5121 13.0489 29.7082 13.3643C29.8917 13.6335 30.2304 13.7677 30.7238 13.7677C30.96 13.7677 31.1958 13.7418 31.4265 13.69C31.6323 13.6452 31.8339 13.5809 32.0288 13.4985L32.1667 15.0249C31.9137 15.1229 31.6551 15.2066 31.3928 15.2747C31.0596 15.3515 30.7188 15.3878 30.3771 15.3826C29.9237 15.396 29.4729 15.3179 29.049 15.1531C28.712 15.0141 28.4087 14.8019 28.1603 14.5309C27.9245 14.2682 27.7503 13.9541 27.6512 13.6124C27.5462 13.253 27.4939 12.8793 27.4964 12.504L27.5011 12.5104V12.51Z" fill="#4D4D4D"/>
<path d="M36.6662 9.89584C36.4042 9.89196 36.1482 9.97739 35.9386 10.1383C35.726 10.3066 35.5476 10.5158 35.4139 10.7544C35.2667 11.0081 35.1562 11.2825 35.0858 11.5686C35.0179 11.843 34.9824 12.1243 34.9807 12.4077C34.9639 12.7533 35.0326 13.0972 35.1807 13.4087C35.3152 13.6477 35.5569 13.7681 35.9082 13.7681C36.1706 13.7728 36.427 13.687 36.6358 13.5243C36.8488 13.3561 37.0276 13.1468 37.1622 12.9086C37.3073 12.6545 37.4152 12.3805 37.4827 12.0945C37.5502 11.8197 37.5856 11.5375 37.5877 11.2536C37.605 10.9085 37.5363 10.5637 37.3878 10.2527C37.2533 10.0154 37.0099 9.89498 36.6603 9.89498L36.6666 9.89671L36.6662 9.89584ZM35.7374 15.3839C35.3431 15.3933 34.9508 15.323 34.5826 15.1781C34.273 15.0529 33.9963 14.8558 33.7745 14.6016C33.5564 14.3458 33.3923 14.0464 33.2915 13.7228C33.1823 13.3599 33.1296 12.9816 33.1368 12.6019C33.138 12.079 33.2198 11.5595 33.3801 11.0629C33.5353 10.5629 33.7779 10.096 34.095 9.68357C34.4139 9.27154 34.8104 8.92897 35.2604 8.67657C35.745 8.40994 36.2887 8.27533 36.8395 8.28525C37.2318 8.27792 37.6215 8.34781 37.988 8.49105C38.298 8.61401 38.5764 8.8086 38.8008 9.0597C39.0175 9.31641 39.1812 9.6154 39.2824 9.93856C39.3925 10.3018 39.4448 10.6806 39.4372 11.0612C39.4355 11.5837 39.3558 12.1027 39.2002 12.6002C39.0475 13.1006 38.8096 13.5696 38.4975 13.9855C38.1833 14.3993 37.7885 14.7419 37.338 14.9912C36.8458 15.2592 36.295 15.3946 35.7374 15.3839Z" fill="#4D4D4D"/>
<path d="M42.3702 7.636C42.1176 7.63859 41.8708 7.55575 41.6692 7.4C41.4541 7.22613 41.3381 6.95431 41.3596 6.67474C41.3588 6.50043 41.3951 6.32785 41.4664 6.16951C41.5326 6.01592 41.6262 5.87656 41.7418 5.75791C41.8616 5.64271 41.9995 5.54952 42.1505 5.48222C42.3065 5.41362 42.4744 5.37867 42.6444 5.3791C42.8974 5.37694 43.145 5.46064 43.347 5.6164C43.5613 5.7907 43.6773 6.06208 43.6566 6.34166C43.6566 6.51683 43.6199 6.6894 43.5482 6.84818C43.4812 7.00177 43.3858 7.14113 43.2682 7.25805C43.1497 7.37411 43.0117 7.4673 42.8612 7.53375C42.7059 7.60192 42.5389 7.63643 42.3702 7.63514V7.636ZM41.4693 15.2032H39.6118L41.1783 8.45747H43.048L41.4689 15.2032H41.4693Z" fill="#4D4D4D"/>
<path d="M44.3859 8.76502C44.5267 8.72404 44.6832 8.67313 44.8502 8.6179C45.0173 8.56267 45.2125 8.51176 45.4277 8.45956C45.6634 8.40822 45.9017 8.36982 46.1413 8.34393C46.4391 8.31157 46.7381 8.29647 47.0376 8.2982C48.0161 8.2982 48.6905 8.58899 49.0621 9.17058C49.2844 9.51919 49.397 9.94417 49.3999 10.4459V10.4822C49.3982 10.8084 49.3506 11.1669 49.2574 11.5569L48.4045 15.1988H46.5407L47.3687 11.6329C47.418 11.4115 47.4585 11.1958 47.488 10.9853C47.5201 10.8027 47.5201 10.6164 47.488 10.4343C47.4572 10.282 47.375 10.1461 47.256 10.0494C47.0907 9.93856 46.8942 9.88679 46.6972 9.90232C46.4492 9.90275 46.2016 9.92864 45.9587 9.97998L44.7419 15.2052H42.8671L44.3859 8.76546V8.76502Z" fill="#4D4D4D"/>
</svg>
