<svg width="59" height="24" viewBox="0 0 59 24" fill="none" xmlns="http://www.w3.org/2000/svg">
<path d="M22.0038 10.5378C21.9504 10.5708 21.8869 10.5822 21.8257 10.5699C21.7644 10.5576 21.7099 10.5225 21.6729 10.4715C21.4906 10.2054 21.246 9.98966 20.9612 9.84376C20.6765 9.69785 20.3604 9.62638 20.0417 9.63578C18.7989 9.63578 18.0361 10.6358 18.0361 12.064C18.0361 13.4921 18.8129 14.5112 20.0557 14.5112C20.3787 14.519 20.6983 14.4429 20.9843 14.29C21.2703 14.1371 21.5132 13.9125 21.6899 13.6375C21.7253 13.5858 21.7784 13.5495 21.8388 13.5357C21.8993 13.522 21.9626 13.5318 22.0162 13.5633L22.6065 13.9108C22.6388 13.9274 22.6671 13.9509 22.6896 13.9797C22.7121 14.0085 22.7283 14.0418 22.737 14.0775C22.7457 14.1132 22.7467 14.1503 22.74 14.1865C22.7333 14.2226 22.719 14.2568 22.6982 14.2868C22.4096 14.7267 22.0159 15.0849 21.5539 15.3278C21.092 15.5707 20.577 15.6903 20.0572 15.6755C18.0703 15.6755 16.7234 14.2095 16.7234 12.0719C16.7234 9.93442 18.0703 8.48722 20.0277 8.48722C20.5388 8.47279 21.0457 8.58591 21.5039 8.8167C21.9621 9.04749 22.3577 9.38892 22.6562 9.81113C22.6768 9.83955 22.6913 9.87197 22.699 9.90636C22.7067 9.94075 22.7074 9.97639 22.701 10.0111C22.6946 10.0457 22.6812 10.0787 22.6618 10.1079C22.6423 10.1371 22.6172 10.1619 22.5879 10.1808L22.0038 10.5378Z" fill="#FFFFE8"/>
<path fill-rule="evenodd" clip-rule="evenodd" d="M26.3473 14.9975V15.2882C26.3473 15.3223 26.3541 15.3561 26.3672 15.3875C26.3804 15.4189 26.3997 15.4473 26.4239 15.4709C26.4482 15.4945 26.4769 15.5129 26.5083 15.525C26.5397 15.537 26.5732 15.5425 26.6067 15.541H27.2561C27.2887 15.541 27.3211 15.5344 27.3512 15.5217C27.3814 15.509 27.4088 15.4904 27.4319 15.4669C27.455 15.4435 27.4733 15.4156 27.4858 15.3849C27.4982 15.3543 27.5047 15.3214 27.5047 15.2882V11.9863C27.5047 10.7904 26.6689 10.2959 25.4851 10.2959C24.8197 10.2975 24.1648 10.4645 23.5774 10.7825C23.5213 10.8143 23.4794 10.8668 23.4603 10.9291C23.4412 10.9915 23.4464 11.0589 23.4749 11.1174L23.6877 11.5693C23.7023 11.5996 23.7228 11.6266 23.748 11.6486C23.7731 11.6707 23.8024 11.6873 23.8341 11.6975C23.8657 11.7077 23.8991 11.7112 23.9322 11.7079C23.9652 11.7046 23.9973 11.6946 24.0264 11.6783C24.4457 11.4567 24.91 11.3371 25.3826 11.3291C25.7943 11.3291 26.2805 11.4445 26.2805 11.8726C26.2805 12.3204 25.7486 12.3968 25.0923 12.491C25.0394 12.4986 24.9865 12.5062 24.9336 12.514C24.2563 12.6104 23.158 12.8253 23.158 14.0781C23.158 15.0844 23.8741 15.6579 24.9057 15.6579C25.6032 15.6579 26.0366 15.4051 26.3473 14.9975ZM25.3292 13.2949C25.7215 13.2249 26.0773 13.1614 26.2805 13.0054V13.5931C26.2805 14.3609 25.7368 14.6911 25.1542 14.6911C24.6851 14.6911 24.3604 14.4778 24.3604 14.0212C24.3604 13.5251 24.7332 13.4035 25.1822 13.3213C25.2316 13.3123 25.2807 13.3036 25.3292 13.2949Z" fill="#FFFFE8"/>
<path d="M28.5718 14.2329C28.6137 14.1833 28.6729 14.1521 28.7369 14.146C28.8009 14.1398 28.8648 14.1591 28.9152 14.1998C29.3305 14.5187 29.8396 14.6857 30.3599 14.6737C30.8959 14.6737 31.292 14.4984 31.292 14.0718C31.292 13.6831 30.9285 13.6057 30.0492 13.4493C29.1171 13.2913 28.2254 12.9754 28.2254 11.8948C28.2254 10.7683 29.1808 10.2929 30.2698 10.2929C30.9527 10.2826 31.6194 10.505 32.1635 10.9247C32.1901 10.9459 32.2121 10.9723 32.2283 11.0024C32.2445 11.0325 32.2545 11.0656 32.2577 11.0997C32.2609 11.1339 32.2572 11.1683 32.2469 11.201C32.2366 11.2336 32.2199 11.2638 32.1977 11.2897L31.887 11.6609C31.8458 11.7107 31.7874 11.7426 31.7239 11.7499C31.6603 11.7573 31.5964 11.7396 31.5452 11.7005C31.1624 11.4157 30.699 11.2649 30.2248 11.2707C29.7665 11.2707 29.3657 11.4066 29.3657 11.7747C29.3657 12.1839 29.928 12.2613 30.492 12.3592C31.6959 12.5725 32.4603 12.9217 32.4603 13.9391C32.4603 15.0071 31.6198 15.6674 30.2854 15.6674C29.556 15.6901 28.8417 15.4532 28.2658 14.9976C28.24 14.976 28.2186 14.9495 28.2029 14.9195C28.1873 14.8895 28.1777 14.8567 28.1746 14.8228C28.1716 14.789 28.1752 14.7549 28.1852 14.7226C28.1953 14.6902 28.2116 14.6601 28.2332 14.6342L28.5718 14.2329ZM33.1982 15.2882V8.85829C33.1982 8.82509 33.2046 8.79222 33.2171 8.76155C33.2296 8.73088 33.2479 8.70302 33.271 8.67954C33.294 8.65607 33.3214 8.63745 33.3516 8.62474C33.3817 8.61204 33.4141 8.6055 33.4467 8.6055H34.1629C34.3002 8.6055 34.4115 8.71868 34.4115 8.85829V11.0543C34.5898 10.8123 34.8224 10.6172 35.09 10.4853C35.3575 10.3534 35.6522 10.2884 35.9494 10.2959C37.0089 10.2959 37.6303 11.0637 37.6303 12.1601V15.2882C37.6303 15.3214 37.6239 15.3543 37.6114 15.385C37.5989 15.4156 37.5806 15.4435 37.5575 15.467C37.5344 15.4904 37.507 15.5091 37.4769 15.5218C37.4467 15.5345 37.4144 15.541 37.3818 15.541H36.6656C36.5997 15.541 36.5364 15.5144 36.4898 15.467C36.4432 15.4196 36.417 15.3553 36.417 15.2882V12.4445C36.417 11.8995 36.2446 11.405 35.5579 11.405C34.907 11.405 34.4115 11.8711 34.4115 12.6483V15.2898C34.4115 15.3568 34.3853 15.4211 34.3387 15.4685C34.292 15.5159 34.2288 15.5426 34.1629 15.5426H33.4467C33.4139 15.5428 33.3813 15.5363 33.351 15.5236C33.3206 15.5109 33.2931 15.4921 33.27 15.4684C33.2468 15.4447 33.2286 15.4166 33.2162 15.3857C33.2039 15.3547 33.1978 15.3216 33.1982 15.2882Z" fill="#FFFFE8"/>
<path fill-rule="evenodd" clip-rule="evenodd" d="M44.9956 13.8221L45.5114 15.3704C45.5269 15.4208 45.5576 15.4649 45.5991 15.4967C45.6406 15.5284 45.6908 15.5461 45.7427 15.5473H46.63C46.67 15.5475 46.7095 15.5378 46.7451 15.5191C46.7807 15.5004 46.8112 15.4732 46.8342 15.4398C46.8573 15.4065 46.8721 15.368 46.8774 15.3275C46.8827 15.2871 46.8782 15.246 46.8644 15.2077L44.5264 8.77773C44.5084 8.72918 44.4764 8.68732 44.4345 8.65769C44.3927 8.62807 44.3429 8.61208 44.2919 8.61183H43.1439C43.094 8.61123 43.045 8.626 43.0034 8.65419C42.9618 8.68239 42.9295 8.7227 42.9108 8.76984L40.5633 15.2013C40.5496 15.2395 40.5451 15.2805 40.5503 15.3208C40.5554 15.3611 40.5701 15.3995 40.5929 15.4328C40.6158 15.4662 40.6462 15.4934 40.6816 15.5122C40.717 15.5311 40.7564 15.5409 40.7964 15.541H41.6366C41.6884 15.5412 41.739 15.5248 41.7811 15.4942C41.8232 15.4636 41.8549 15.4203 41.8715 15.3704L42.3885 13.8221H44.9956ZM42.7027 12.7431L43.7061 9.73197L44.671 12.7431H42.7027ZM48.6649 11.0638V10.6656C48.6666 10.6314 48.6615 10.5971 48.6497 10.565C48.638 10.5328 48.6199 10.5035 48.5965 10.4787C48.5733 10.4539 48.5454 10.4341 48.5144 10.4207C48.4834 10.4072 48.4501 10.4002 48.4164 10.4003H47.7C47.5629 10.4003 47.4516 10.5135 47.4516 10.653V16.9724C47.4516 17.112 47.5629 17.2251 47.7 17.2251H48.4164C48.5536 17.2251 48.6649 17.112 48.6649 16.9724V14.8759C48.8402 15.1263 49.0739 15.3285 49.3452 15.4642C49.6164 15.5999 49.9166 15.6648 50.2186 15.6532C51.5931 15.6532 52.4817 14.4826 52.4817 12.9675C52.4817 11.4525 51.5931 10.296 50.2186 10.296C49.9174 10.2836 49.6179 10.3472 49.3468 10.4812C49.0757 10.6151 48.8414 10.8153 48.6649 11.0638ZM51.2062 12.9675C51.2062 13.8507 50.804 14.5805 49.9636 14.5805C49.1079 14.5805 48.6649 13.8522 48.6649 12.9675C48.6649 12.0828 49.1311 11.3734 49.9636 11.3734C50.7961 11.3734 51.2062 12.0844 51.2062 12.9675ZM54.4439 11.0637V10.6656C54.4458 10.6313 54.4408 10.597 54.4292 10.5647C54.4176 10.5325 54.3996 10.503 54.3764 10.4781C54.3531 10.4533 54.325 10.4335 54.2938 10.4201C54.2627 10.4067 54.2292 10.3999 54.1954 10.4002H53.479C53.4131 10.4002 53.3499 10.4268 53.3033 10.4742C53.2568 10.5216 53.2306 10.5859 53.2306 10.6529V16.9724C53.2306 17.1119 53.3419 17.2251 53.479 17.2251H54.1954C54.3326 17.2251 54.4439 17.1119 54.4439 16.9723V14.8758C54.6194 15.126 54.8532 15.328 55.1244 15.4637C55.3956 15.5993 55.6956 15.6644 55.9976 15.6531C57.3739 15.6531 58.2625 14.4825 58.2625 12.9674C58.2625 11.4524 57.3739 10.2959 55.9976 10.2959C55.6965 10.2838 55.397 10.3475 55.126 10.4815C54.8549 10.6154 54.6206 10.8154 54.4439 11.0637ZM56.987 12.9674C56.987 13.8506 56.5848 14.5804 55.7444 14.5804C54.893 14.5804 54.4439 13.8521 54.4439 12.9674C54.4439 12.0827 54.9114 11.3734 55.7444 11.3734C56.5769 11.3734 56.987 12.0843 56.987 12.9674Z" fill="#FFFFE8"/>
<path fill-rule="evenodd" clip-rule="evenodd" d="M9.48067 5.25C10.8354 5.25 11.5018 5.25 12.2335 5.4838C12.6262 5.62841 12.9828 5.85903 13.2781 6.15934C13.5734 6.45965 13.8002 6.8223 13.9424 7.22162C14.1723 7.95944 14.1723 8.64352 14.1723 10.0148V14.1413C14.1723 15.5111 14.1723 16.1951 13.9424 16.9345C13.8002 17.3338 13.5734 17.6965 13.2781 17.9968C12.9828 18.2971 12.6262 18.5277 12.2335 18.6723C11.508 18.9061 10.8354 18.9061 9.4869 18.9061H5.41671C4.06982 18.9061 3.39719 18.9061 2.67009 18.6723C2.27742 18.5277 1.92081 18.2971 1.62551 17.9968C1.33021 17.6965 1.10343 17.3338 0.961234 16.9345C0.737549 16.1967 0.737549 15.5189 0.737549 14.1413V10.0085C0.737549 8.63875 0.737549 7.95476 0.967456 7.2153C1.10965 6.81597 1.33642 6.45331 1.63173 6.153C1.92703 5.8527 2.28364 5.62208 2.67631 5.47748C3.39561 5.25 4.06982 5.25 5.41675 5.25H9.48067Z" fill="#00D54B"/>
<path d="M7.79052 9.72575C8.45048 9.72679 9.08881 9.96517 9.59257 10.3987C9.64459 10.4467 9.71267 10.4726 9.78286 10.4711C9.85304 10.4696 9.92002 10.4409 9.97006 10.3908L10.4889 9.86161C10.515 9.83536 10.5354 9.80392 10.5489 9.76926C10.5623 9.73459 10.5686 9.69747 10.5673 9.66021C10.566 9.62296 10.5571 9.58639 10.5412 9.55279C10.5253 9.5192 10.5028 9.48932 10.475 9.46504C10.0674 9.11251 9.59621 8.84421 9.08767 8.67517L9.24305 7.89627C9.25111 7.85625 9.25029 7.8149 9.24067 7.77523C9.23104 7.73556 9.21285 7.69857 9.18741 7.66695C9.16197 7.63533 9.12992 7.60987 9.09359 7.59242C9.05726 7.57497 9.01756 7.56598 8.97739 7.56609H7.97849C7.91659 7.56603 7.85653 7.58745 7.80822 7.62681C7.75992 7.66617 7.72627 7.72111 7.71283 7.78256L7.57301 8.47924C6.24321 8.54564 5.11537 9.21546 5.11537 10.5883C5.11537 11.7748 6.04748 12.2851 7.0324 12.6421C7.96447 12.9944 8.45851 13.1256 8.45851 13.6216C8.45851 14.1177 7.96605 14.4305 7.24057 14.4305C6.53653 14.4419 5.85631 14.1713 5.34685 13.677C5.2963 13.6264 5.22823 13.5981 5.15732 13.5981C5.08642 13.5981 5.01835 13.6264 4.96779 13.677L4.41163 14.2298C4.38564 14.2553 4.36497 14.2859 4.35086 14.3197C4.33674 14.3535 4.32947 14.3898 4.32947 14.4265C4.32947 14.4632 4.33674 14.4996 4.35086 14.5334C4.36497 14.5672 4.38564 14.5977 4.41163 14.6232C4.86477 15.0548 5.41786 15.363 6.01948 15.519L5.86415 16.241C5.85594 16.2813 5.85654 16.323 5.86591 16.3631C5.87528 16.4031 5.8932 16.4406 5.91839 16.4729C5.94358 16.5051 5.97544 16.5314 6.0117 16.5497C6.04796 16.5681 6.08775 16.5781 6.12824 16.5791H7.13024C7.19262 16.5794 7.25322 16.558 7.30187 16.5183C7.35053 16.4786 7.38428 16.4231 7.39748 16.3611L7.54195 15.677C9.13583 15.5774 10.1099 14.7054 10.1099 13.4289C10.1099 12.2535 9.13894 11.7574 7.95983 11.353C7.28562 11.0955 6.70303 10.9264 6.70303 10.4177C6.70303 9.90903 7.24675 9.72575 7.79052 9.72575Z" fill="#343434"/>
</svg>
