<svg width="31" height="31" viewBox="0 0 31 31" fill="none" xmlns="http://www.w3.org/2000/svg">
<path fill-rule="evenodd" clip-rule="evenodd" d="M7.13044 19.2954C6.60148 19.4371 6.337 19.508 6.24241 19.735C6.14783 19.962 6.27508 20.1845 6.5296 20.6297C7.02848 21.5022 7.65457 22.3018 8.39163 23.0004C9.84113 24.3742 11.6577 25.2986 13.6215 25.6617C15.5854 26.0247 17.6124 25.8109 19.4572 25.0461C21.3021 24.2813 22.8859 22.9983 24.0168 21.3523C25.1478 19.7062 25.7775 17.7677 25.8299 15.7713C25.8822 13.7748 25.3549 11.806 24.3117 10.103C23.2685 8.39997 21.7542 7.03573 19.9519 6.17533C18.5438 5.50309 17.007 5.16092 15.4578 5.16726C14.945 5.16936 14.6886 5.17041 14.5393 5.36583C14.3899 5.56125 14.4608 5.82575 14.6025 6.35475L16.8713 14.8218L16.8739 14.8312C16.8862 14.8763 16.928 15.028 16.9474 15.1787C16.9741 15.3861 16.9907 15.7936 16.7453 16.2188C16.4998 16.6439 16.1386 16.8333 15.9457 16.9138C15.8055 16.9723 15.6532 17.0121 15.608 17.0239L15.5985 17.0264L7.13044 19.2954Z" fill="#FFFFE8"/>
<path d="M12.4157 3.98938C12.2919 3.52763 12.2301 3.29676 12.0367 3.19489C11.8434 3.09303 11.6295 3.16848 11.2019 3.31939C9.9211 3.77132 8.71757 4.42317 7.63675 5.25251C6.29103 6.28512 5.16188 7.57267 4.31376 9.04166C3.46564 10.5106 2.91516 12.1323 2.69376 13.814C2.51593 15.1647 2.55318 16.5329 2.80219 17.8681C2.88533 18.3139 2.9269 18.5368 3.11179 18.6533C3.29668 18.7698 3.52755 18.708 3.9893 18.5843L14.534 15.7588C14.9893 15.6368 15.217 15.5758 15.3206 15.3964C15.4241 15.2171 15.3631 14.9894 15.2411 14.5341L12.4157 3.98938Z" fill="#FFFFE8"/>
</svg>
