<svg width="41" height="41" viewBox="0 0 41 41" fill="none" xmlns="http://www.w3.org/2000/svg">
<path fill-rule="evenodd" clip-rule="evenodd" d="M9.15679 17.2537C8.69592 18.2557 8.69592 19.3956 8.69592 21.6755V28.7959C8.69592 31.9621 8.69592 33.5453 9.67956 34.5289C10.6464 35.4958 12.1926 35.5122 15.2522 35.5125V27.1168C15.2522 25.6371 16.4517 24.4376 17.9313 24.4376H22.9688C24.4485 24.4376 25.648 25.6371 25.648 27.1168V35.5125C28.7076 35.5122 30.2537 35.4958 31.2206 34.5289C32.2043 33.5453 32.2043 31.9621 32.2043 28.7959V21.6755C32.2043 19.3956 32.2043 18.2557 31.7434 17.2537C31.2825 16.2516 30.417 15.5098 28.686 14.026L27.0068 12.5867C23.878 9.90489 22.3136 8.56396 20.4501 8.56396C18.5866 8.56396 17.0222 9.90489 13.8934 12.5867L13.8934 12.5867L12.2142 14.026C10.4832 15.5098 9.61766 16.2516 9.15679 17.2537ZM23.648 35.5125V27.1168C23.648 26.7417 23.3439 26.4376 22.9688 26.4376H17.9313C17.5562 26.4376 17.2522 26.7417 17.2522 27.1168V35.5125H23.648Z" fill="#FF8686"/>
</svg>
