<svg width="139" height="29" viewBox="0 0 139 29" fill="none" xmlns="http://www.w3.org/2000/svg">
<g filter="url(#filter0_i_175_7139)">
<rect width="45" height="20.25" rx="10.125" transform="matrix(1 0 0 -1 86 24.25)" fill="#7D83FF"/>
</g>
<g filter="url(#filter1_d_175_7139)">
<circle cx="7.875" cy="7.875" r="7.875" transform="matrix(1 0 0 -1 115 21.75)" fill="url(#paint0_linear_175_7139)"/>
</g>
<path d="M14 17L10 21L14 25" stroke="#FFFFE8" stroke-width="2"/>
<path d="M5.93782 17.5C5.16735 16.1655 4.85875 14.6141 5.05989 13.0863C5.26102 11.5586 5.96064 10.1399 7.05025 9.05025C8.13986 7.96064 9.55856 7.26102 11.0863 7.05989C12.6141 6.85875 14.1655 7.16735 15.5 7.93782C16.8345 8.70829 17.8775 9.89757 18.4672 11.3212C19.0568 12.7449 19.1603 14.3233 18.7615 15.8117C18.3627 17.3002 17.4838 18.6154 16.2613 19.5535C15.0388 20.4915 13.5409 21 12 21" stroke="#FFFFE8" stroke-width="2" stroke-linecap="round"/>
<path d="M31.9902 9.46875H34.8145C35.4551 9.46875 35.9961 9.56641 36.4375 9.76172C36.8828 9.95703 37.2207 10.2461 37.4512 10.6289C37.6855 11.0078 37.8027 11.4746 37.8027 12.0293C37.8027 12.4199 37.7227 12.7773 37.5625 13.1016C37.4062 13.4219 37.1797 13.6953 36.8828 13.9219C36.5898 14.1445 36.2383 14.3105 35.8281 14.4199L35.5117 14.543H32.8574L32.8457 13.623H34.8496C35.2559 13.623 35.5938 13.5527 35.8633 13.4121C36.1328 13.2676 36.3359 13.0742 36.4727 12.832C36.6094 12.5898 36.6777 12.3223 36.6777 12.0293C36.6777 11.7012 36.6133 11.4141 36.4844 11.168C36.3555 10.9219 36.1523 10.7324 35.875 10.5996C35.6016 10.4629 35.248 10.3945 34.8145 10.3945H33.1211V18H31.9902V9.46875ZM36.9766 18L34.9023 14.1328L36.0801 14.127L38.1836 17.9297V18H36.9766ZM38.9336 14.9004V14.7656C38.9336 14.3086 39 13.8848 39.1328 13.4941C39.2656 13.0996 39.457 12.7578 39.707 12.4688C39.957 12.1758 40.2598 11.9492 40.6152 11.7891C40.9707 11.625 41.3691 11.543 41.8105 11.543C42.2559 11.543 42.6562 11.625 43.0117 11.7891C43.3711 11.9492 43.6758 12.1758 43.9258 12.4688C44.1797 12.7578 44.373 13.0996 44.5059 13.4941C44.6387 13.8848 44.7051 14.3086 44.7051 14.7656V14.9004C44.7051 15.3574 44.6387 15.7812 44.5059 16.1719C44.373 16.5625 44.1797 16.9043 43.9258 17.1973C43.6758 17.4863 43.373 17.7129 43.0176 17.877C42.666 18.0371 42.2676 18.1172 41.8223 18.1172C41.377 18.1172 40.9766 18.0371 40.6211 17.877C40.2656 17.7129 39.9609 17.4863 39.707 17.1973C39.457 16.9043 39.2656 16.5625 39.1328 16.1719C39 15.7812 38.9336 15.3574 38.9336 14.9004ZM40.0176 14.7656V14.9004C40.0176 15.2168 40.0547 15.5156 40.1289 15.7969C40.2031 16.0742 40.3145 16.3203 40.4629 16.5352C40.6152 16.75 40.8047 16.9199 41.0312 17.0449C41.2578 17.166 41.5215 17.2266 41.8223 17.2266C42.1191 17.2266 42.3789 17.166 42.6016 17.0449C42.8281 16.9199 43.0156 16.75 43.1641 16.5352C43.3125 16.3203 43.4238 16.0742 43.498 15.7969C43.5762 15.5156 43.6152 15.2168 43.6152 14.9004V14.7656C43.6152 14.4531 43.5762 14.1582 43.498 13.8809C43.4238 13.5996 43.3105 13.3516 43.1582 13.1367C43.0098 12.918 42.8223 12.7461 42.5957 12.6211C42.373 12.4961 42.1113 12.4336 41.8105 12.4336C41.5137 12.4336 41.252 12.4961 41.0254 12.6211C40.8027 12.7461 40.6152 12.918 40.4629 13.1367C40.3145 13.3516 40.2031 13.5996 40.1289 13.8809C40.0547 14.1582 40.0176 14.4531 40.0176 14.7656ZM48.7188 11.6602V12.4922H45.291V11.6602H48.7188ZM46.4512 10.1191H47.5352V16.4297C47.5352 16.6445 47.5684 16.8066 47.6348 16.916C47.7012 17.0254 47.7871 17.0977 47.8926 17.1328C47.998 17.168 48.1113 17.1855 48.2324 17.1855C48.3223 17.1855 48.416 17.1777 48.5137 17.1621C48.6152 17.1426 48.6914 17.127 48.7422 17.1152L48.748 18C48.6621 18.0273 48.5488 18.0527 48.4082 18.0762C48.2715 18.1035 48.1055 18.1172 47.9102 18.1172C47.6445 18.1172 47.4004 18.0645 47.1777 17.959C46.9551 17.8535 46.7773 17.6777 46.6445 17.4316C46.5156 17.1816 46.4512 16.8457 46.4512 16.4238V10.1191ZM53.7285 16.916V13.6523C53.7285 13.4023 53.6777 13.1855 53.5762 13.002C53.4785 12.8145 53.3301 12.6699 53.1309 12.5684C52.9316 12.4668 52.6855 12.416 52.3926 12.416C52.1191 12.416 51.8789 12.4629 51.6719 12.5566C51.4688 12.6504 51.3086 12.7734 51.1914 12.9258C51.0781 13.0781 51.0215 13.2422 51.0215 13.418H49.9375C49.9375 13.1914 49.9961 12.9668 50.1133 12.7441C50.2305 12.5215 50.3984 12.3203 50.6172 12.1406C50.8398 11.957 51.1055 11.8125 51.4141 11.707C51.7266 11.5977 52.0742 11.543 52.457 11.543C52.918 11.543 53.3242 11.6211 53.6758 11.7773C54.0312 11.9336 54.3086 12.1699 54.5078 12.4863C54.7109 12.7988 54.8125 13.1914 54.8125 13.6641V16.6172C54.8125 16.8281 54.8301 17.0527 54.8652 17.291C54.9043 17.5293 54.9609 17.7344 55.0352 17.9062V18H53.9043C53.8496 17.875 53.8066 17.709 53.7754 17.502C53.7441 17.291 53.7285 17.0957 53.7285 16.916ZM53.916 14.1562L53.9277 14.918H52.832C52.5234 14.918 52.248 14.9434 52.0059 14.9941C51.7637 15.041 51.5605 15.1133 51.3965 15.2109C51.2324 15.3086 51.1074 15.4316 51.0215 15.5801C50.9355 15.7246 50.8926 15.8945 50.8926 16.0898C50.8926 16.2891 50.9375 16.4707 51.0273 16.6348C51.1172 16.7988 51.252 16.9297 51.4316 17.0273C51.6152 17.1211 51.8398 17.168 52.1055 17.168C52.4375 17.168 52.7305 17.0977 52.9844 16.957C53.2383 16.8164 53.4395 16.6445 53.5879 16.4414C53.7402 16.2383 53.8223 16.041 53.834 15.8496L54.2969 16.3711C54.2695 16.5352 54.1953 16.7168 54.0742 16.916C53.9531 17.1152 53.791 17.3066 53.5879 17.4902C53.3887 17.6699 53.1504 17.8203 52.873 17.9414C52.5996 18.0586 52.291 18.1172 51.9473 18.1172C51.5176 18.1172 51.1406 18.0332 50.8164 17.8652C50.4961 17.6973 50.2461 17.4727 50.0664 17.1914C49.8906 16.9062 49.8027 16.5879 49.8027 16.2363C49.8027 15.8965 49.8691 15.5977 50.002 15.3398C50.1348 15.0781 50.3262 14.8613 50.5762 14.6895C50.8262 14.5137 51.127 14.3809 51.4785 14.291C51.8301 14.2012 52.2227 14.1562 52.6562 14.1562H53.916ZM59.1719 11.6602V12.4922H55.7441V11.6602H59.1719ZM56.9043 10.1191H57.9883V16.4297C57.9883 16.6445 58.0215 16.8066 58.0879 16.916C58.1543 17.0254 58.2402 17.0977 58.3457 17.1328C58.4512 17.168 58.5645 17.1855 58.6855 17.1855C58.7754 17.1855 58.8691 17.1777 58.9668 17.1621C59.0684 17.1426 59.1445 17.127 59.1953 17.1152L59.2012 18C59.1152 18.0273 59.002 18.0527 58.8613 18.0762C58.7246 18.1035 58.5586 18.1172 58.3633 18.1172C58.0977 18.1172 57.8535 18.0645 57.6309 17.959C57.4082 17.8535 57.2305 17.6777 57.0977 17.4316C56.9688 17.1816 56.9043 16.8457 56.9043 16.4238V10.1191ZM61.6211 11.6602V18H60.5312V11.6602H61.6211ZM60.4492 9.97852C60.4492 9.80273 60.502 9.6543 60.6074 9.5332C60.7168 9.41211 60.877 9.35156 61.0879 9.35156C61.2949 9.35156 61.4531 9.41211 61.5625 9.5332C61.6758 9.6543 61.7324 9.80273 61.7324 9.97852C61.7324 10.1465 61.6758 10.291 61.5625 10.4121C61.4531 10.5293 61.2949 10.5879 61.0879 10.5879C60.877 10.5879 60.7168 10.5293 60.6074 10.4121C60.502 10.291 60.4492 10.1465 60.4492 9.97852ZM64.4453 13.0137V18H63.3613V11.6602H64.3867L64.4453 13.0137ZM64.1875 14.5898L63.7363 14.5723C63.7402 14.1387 63.8047 13.7383 63.9297 13.3711C64.0547 13 64.2305 12.6777 64.457 12.4043C64.6836 12.1309 64.9531 11.9199 65.2656 11.7715C65.582 11.6191 65.9316 11.543 66.3145 11.543C66.627 11.543 66.9082 11.5859 67.1582 11.6719C67.4082 11.7539 67.6211 11.8867 67.7969 12.0703C67.9766 12.2539 68.1133 12.4922 68.207 12.7852C68.3008 13.0742 68.3477 13.4277 68.3477 13.8457V18H67.2578V13.834C67.2578 13.502 67.209 13.2363 67.1113 13.0371C67.0137 12.834 66.8711 12.6875 66.6836 12.5977C66.4961 12.5039 66.2656 12.457 65.9922 12.457C65.7227 12.457 65.4766 12.5137 65.2539 12.627C65.0352 12.7402 64.8457 12.8965 64.6855 13.0957C64.5293 13.2949 64.4062 13.5234 64.3164 13.7812C64.2305 14.0352 64.1875 14.3047 64.1875 14.5898ZM74.1016 11.6602H75.0859V17.8652C75.0859 18.4238 74.9727 18.9004 74.7461 19.2949C74.5195 19.6895 74.2031 19.9883 73.7969 20.1914C73.3945 20.3984 72.9297 20.502 72.4023 20.502C72.1836 20.502 71.9258 20.4668 71.6289 20.3965C71.3359 20.3301 71.0469 20.2148 70.7617 20.0508C70.4805 19.8906 70.2441 19.6738 70.0527 19.4004L70.6211 18.7559C70.8867 19.0762 71.1641 19.2988 71.4531 19.4238C71.7461 19.5488 72.0352 19.6113 72.3203 19.6113C72.6641 19.6113 72.9609 19.5469 73.2109 19.418C73.4609 19.2891 73.6543 19.0977 73.791 18.8438C73.9316 18.5938 74.002 18.2852 74.002 17.918V13.0547L74.1016 11.6602ZM69.7363 14.9004V14.7773C69.7363 14.293 69.793 13.8535 69.9062 13.459C70.0234 13.0605 70.1895 12.7188 70.4043 12.4336C70.623 12.1484 70.8867 11.9297 71.1953 11.7773C71.5039 11.6211 71.8516 11.543 72.2383 11.543C72.6367 11.543 72.9844 11.6133 73.2812 11.7539C73.582 11.8906 73.8359 12.0918 74.043 12.3574C74.2539 12.6191 74.4199 12.9355 74.541 13.3066C74.6621 13.6777 74.7461 14.0977 74.793 14.5664V15.1055C74.75 15.5703 74.666 15.9883 74.541 16.3594C74.4199 16.7305 74.2539 17.0469 74.043 17.3086C73.8359 17.5703 73.582 17.7715 73.2812 17.9121C72.9805 18.0488 72.6289 18.1172 72.2266 18.1172C71.8477 18.1172 71.5039 18.0371 71.1953 17.877C70.8906 17.7168 70.6289 17.4922 70.4102 17.2031C70.1914 16.9141 70.0234 16.5742 69.9062 16.1836C69.793 15.7891 69.7363 15.3613 69.7363 14.9004ZM70.8203 14.7773V14.9004C70.8203 15.2168 70.8516 15.5137 70.9141 15.791C70.9805 16.0684 71.0801 16.3125 71.2129 16.5234C71.3496 16.7344 71.5234 16.9004 71.7344 17.0215C71.9453 17.1387 72.1973 17.1973 72.4902 17.1973C72.8496 17.1973 73.1465 17.1211 73.3809 16.9688C73.6152 16.8164 73.8008 16.6152 73.9375 16.3652C74.0781 16.1152 74.1875 15.8438 74.2656 15.5508V14.1387C74.2227 13.9238 74.1562 13.7168 74.0664 13.5176C73.9805 13.3145 73.8672 13.1348 73.7266 12.9785C73.5898 12.8184 73.4199 12.6914 73.2168 12.5977C73.0137 12.5039 72.7754 12.457 72.502 12.457C72.2051 12.457 71.9492 12.5195 71.7344 12.6445C71.5234 12.7656 71.3496 12.9336 71.2129 13.1484C71.0801 13.3594 70.9805 13.6055 70.9141 13.8867C70.8516 14.1641 70.8203 14.4609 70.8203 14.7773Z" fill="#FFFFE8"/>
<defs>
<filter id="filter0_i_175_7139" x="86" y="4" width="45" height="26.25" filterUnits="userSpaceOnUse" color-interpolation-filters="sRGB">
<feFlood flood-opacity="0" result="BackgroundImageFix"/>
<feBlend mode="normal" in="SourceGraphic" in2="BackgroundImageFix" result="shape"/>
<feColorMatrix in="SourceAlpha" type="matrix" values="0 0 0 0 0 0 0 0 0 0 0 0 0 0 0 0 0 0 127 0" result="hardAlpha"/>
<feMorphology radius="3" operator="erode" in="SourceAlpha" result="effect1_innerShadow_175_7139"/>
<feOffset dy="6"/>
<feGaussianBlur stdDeviation="4"/>
<feComposite in2="hardAlpha" operator="arithmetic" k2="-1" k3="1"/>
<feColorMatrix type="matrix" values="0 0 0 0 0 0 0 0 0 0 0 0 0 0 0 0 0 0 0.1 0"/>
<feBlend mode="normal" in2="shape" result="effect1_innerShadow_175_7139"/>
</filter>
<filter id="filter1_d_175_7139" x="111" y="1" width="27.75" height="27.75" filterUnits="userSpaceOnUse" color-interpolation-filters="sRGB">
<feFlood flood-opacity="0" result="BackgroundImageFix"/>
<feColorMatrix in="SourceAlpha" type="matrix" values="0 0 0 0 0 0 0 0 0 0 0 0 0 0 0 0 0 0 127 0" result="hardAlpha"/>
<feOffset dx="2" dy="1"/>
<feGaussianBlur stdDeviation="3"/>
<feColorMatrix type="matrix" values="0 0 0 0 0 0 0 0 0 0 0 0 0 0 0 0 0 0 0.25 0"/>
<feBlend mode="normal" in2="BackgroundImageFix" result="effect1_dropShadow_175_7139"/>
<feBlend mode="normal" in="SourceGraphic" in2="effect1_dropShadow_175_7139" result="shape"/>
</filter>
<linearGradient id="paint0_linear_175_7139" x1="7.875" y1="0" x2="7.875" y2="15.75" gradientUnits="userSpaceOnUse">
<stop stop-color="white"/>
<stop offset="1" stop-color="#E8EAEA"/>
</linearGradient>
</defs>
</svg>
