<svg width="41" height="41" viewBox="0 0 41 41" fill="none" xmlns="http://www.w3.org/2000/svg">
<path fill-rule="evenodd" clip-rule="evenodd" d="M24.0967 5.21763V5.21765L24.2573 6.82345C24.4207 8.45698 24.5023 9.27375 25.0551 9.50273C25.608 9.73172 26.2433 9.21193 27.5139 8.17235L28.7628 7.15045C29.4286 6.60574 29.7615 6.33339 30.1463 6.35258C30.5311 6.37177 30.8353 6.6759 31.4435 7.28416L33.7157 9.55636C34.324 10.1646 34.6281 10.4687 34.6473 10.8536C34.6665 11.2384 34.3941 11.5713 33.8494 12.2371L32.8275 13.4861C31.7879 14.7567 31.2681 15.392 31.4971 15.9448C31.7261 16.4976 32.5429 16.5793 34.1764 16.7426L35.7823 16.9032C36.6382 16.9888 37.0662 17.0316 37.3247 17.3173C37.5833 17.603 37.5833 18.0331 37.5833 18.8933V22.1067C37.5833 22.9669 37.5833 23.397 37.3247 23.6827C37.0662 23.9684 36.6382 24.0112 35.7823 24.0968L34.177 24.2573C32.5435 24.4206 31.7267 24.5023 31.4978 25.0551C31.2688 25.6079 31.7886 26.2432 32.8281 27.5138L33.8495 28.7622C34.3942 29.4279 34.6666 29.7608 34.6474 30.1456C34.6282 30.5305 34.3241 30.8346 33.7158 31.4429L31.4436 33.7151C30.8354 34.3233 30.5312 34.6274 30.1464 34.6466C29.7616 34.6658 29.4287 34.3935 28.7629 33.8488L27.5139 32.8269L27.5139 32.8269C26.2433 31.7873 25.608 31.2675 25.0552 31.4965C24.5024 31.7255 24.4207 32.5422 24.2574 34.1758L24.0967 35.7823C24.0111 36.6383 23.9683 37.0662 23.6826 37.3248C23.3969 37.5833 22.9668 37.5833 22.1066 37.5833H18.8933C18.0331 37.5833 17.603 37.5833 17.3173 37.3248C17.0316 37.0662 16.9888 36.6383 16.9032 35.7823L16.7426 34.1764C16.5792 32.5429 16.4976 31.7261 15.9448 31.4972C15.3919 31.2682 14.7566 31.788 13.4861 32.8275L12.2369 33.8495C11.5712 34.3943 11.2383 34.6666 10.8535 34.6474C10.4686 34.6282 10.1645 34.3241 9.55625 33.7158L7.28405 31.4436C6.67579 30.8354 6.37166 30.5313 6.35247 30.1464C6.33328 29.7616 6.60563 29.4287 7.15034 28.7629L8.17231 27.5139C9.21188 26.2433 9.73167 25.608 9.50269 25.0552C9.2737 24.5024 8.45693 24.4207 6.8234 24.2573L5.21762 24.0968H5.2176C4.36168 24.0112 3.93372 23.9684 3.67517 23.6827C3.41663 23.397 3.41663 22.9669 3.41663 22.1067V18.8933C3.41663 18.0331 3.41663 17.603 3.67517 17.3173C3.93372 17.0316 4.36169 16.9888 5.21762 16.9032L6.82404 16.7426C8.45758 16.5792 9.27435 16.4976 9.50333 15.9447C9.73231 15.3919 9.21252 14.7566 8.17295 13.486L7.15042 12.2363C6.60571 11.5705 6.33335 11.2376 6.35255 10.8528C6.37174 10.468 6.67587 10.1638 7.28412 9.55559L9.55633 7.28338C10.1646 6.67513 10.4687 6.371 10.8535 6.35181C11.2384 6.33261 11.5713 6.60497 12.237 7.14968L13.4861 8.17168C14.7567 9.21126 15.392 9.73105 15.9448 9.50206C16.4976 9.27308 16.5793 8.45631 16.7427 6.82277L16.9032 5.21765C16.9888 4.36172 17.0316 3.93375 17.3173 3.6752C17.603 3.41666 18.0331 3.41666 18.8933 3.41666H22.1066C22.9668 3.41666 23.3969 3.41666 23.6826 3.6752C23.9683 3.93375 24.0111 4.36171 24.0967 5.21763ZM20.5 27.3333C24.2739 27.3333 27.3333 24.2739 27.3333 20.5C27.3333 16.726 24.2739 13.6667 20.5 13.6667C16.726 13.6667 13.6666 16.726 13.6666 20.5C13.6666 24.2739 16.726 27.3333 20.5 27.3333Z" fill="#FFFFE8"/>
</svg>
