<svg width="108" height="87" viewBox="0 0 108 87" fill="none" xmlns="http://www.w3.org/2000/svg">
<g filter="url(#filter0_d_1_2136)">
<rect x="21.3229" y="21.3229" width="65.3542" height="44.3542" rx="14.5521" fill="#343434" stroke="#D9D9D9" stroke-width="2.64583"/>
<path fill-rule="evenodd" clip-rule="evenodd" d="M56.5362 35.9445L53.0819 36.6918V33.8689L56.5362 33.1355V35.9445ZM42.4984 34.7407L39.1405 35.4603L39.1267 46.5442C39.1267 48.5922 40.6543 50.1005 42.6911 50.1005C43.8196 50.1005 44.6453 49.8929 45.0994 49.6438V46.8348C44.659 47.0147 42.4847 47.6512 42.4847 45.6033V40.6909H45.0994V37.7435H42.4847L42.4984 34.7407ZM34.3654 40.5111C33.636 40.5111 33.1956 40.7186 33.1956 41.2583C33.1956 41.8475 33.9536 42.1067 34.8938 42.4283C36.4267 42.9525 38.4442 43.6425 38.4527 46.1983C38.4527 48.6753 36.4848 50.1006 33.6223 50.1006C32.4387 50.1006 31.1451 49.8653 29.8652 49.3118V46.0185C31.0213 46.655 32.48 47.1255 33.6223 47.1255C34.3929 47.1255 34.9434 46.9179 34.9434 46.2814C34.9434 45.6287 34.1218 45.3304 33.13 44.9702C31.6194 44.4217 29.7139 43.7298 29.7139 41.4244C29.7139 38.9751 31.5717 37.5083 34.3654 37.5083C35.5077 37.5083 36.6361 37.6882 37.7784 38.1448V41.3967C36.7325 40.8293 35.4113 40.5111 34.3654 40.5111ZM49.3798 38.7674L49.1596 37.7434H46.187V49.8513H49.6275V41.6456C50.4395 40.5801 51.8157 40.7738 52.2423 40.926V37.7434C51.8019 37.5773 50.1917 37.2729 49.3798 38.7674ZM53.0819 37.7434H56.5362V49.8514H53.0819V37.7434ZM79.257 43.8459C79.257 40.3035 77.5505 37.5083 74.2889 37.5083C71.0136 37.5083 69.0319 40.3035 69.0319 43.8183C69.0319 47.9834 71.3714 50.0867 74.7293 50.0867C76.367 50.0867 77.6056 49.7131 78.5414 49.1873V46.4197C77.6056 46.8902 76.5321 47.1808 75.1697 47.1808C73.8348 47.1808 72.6513 46.7103 72.4999 45.0775H79.2295C79.2295 45.0016 79.2344 44.8299 79.24 44.6316L79.2401 44.6286L79.2401 44.6283C79.2479 44.3571 79.257 44.0372 79.257 43.8459ZM72.4582 42.5312C72.4582 40.9676 73.4078 40.3172 74.2748 40.3172C75.1142 40.3172 76.0088 40.9676 76.0088 42.5312H72.4582ZM61.022 38.5876C61.5037 38.1448 62.3707 37.5083 63.7194 37.5083C66.1277 37.5083 68.3984 39.6946 68.4122 43.7076C68.4122 48.0941 66.169 50.0867 63.7056 50.0867C62.4946 50.0867 61.7652 49.5747 61.2698 49.215L61.256 53.131L57.8155 53.8644V37.7297H60.8431L61.022 38.5876ZM61.2697 46.3919C61.6 46.7517 62.0817 47.0423 62.8936 47.0423C64.1597 47.0423 65.013 45.6585 65.013 43.8043C65.013 41.9916 64.146 40.5801 62.8936 40.5801C62.1092 40.5801 61.6138 40.8569 61.256 41.2582L61.2697 46.3919Z" fill="#C2C0FF"/>
</g>
<defs>
<filter id="filter0_d_1_2136" x="0" y="0" width="108" height="87" filterUnits="userSpaceOnUse" color-interpolation-filters="sRGB">
<feFlood flood-opacity="0" result="BackgroundImageFix"/>
<feColorMatrix in="SourceAlpha" type="matrix" values="0 0 0 0 0 0 0 0 0 0 0 0 0 0 0 0 0 0 127 0" result="hardAlpha"/>
<feOffset/>
<feGaussianBlur stdDeviation="10"/>
<feComposite in2="hardAlpha" operator="out"/>
<feColorMatrix type="matrix" values="0 0 0 0 0 0 0 0 0 0 0 0 0 0 0 0 0 0 0.07 0"/>
<feBlend mode="normal" in2="BackgroundImageFix" result="effect1_dropShadow_1_2136"/>
<feBlend mode="normal" in="SourceGraphic" in2="effect1_dropShadow_1_2136" result="shape"/>
</filter>
</defs>
</svg>
