<svg width="29" height="29" viewBox="0 0 29 29" fill="none" xmlns="http://www.w3.org/2000/svg">
<path fill-rule="evenodd" clip-rule="evenodd" d="M25.375 14.5C25.375 20.5061 20.5061 25.375 14.5 25.375C8.4939 25.375 3.625 20.5061 3.625 14.5C3.625 8.4939 8.4939 3.625 14.5 3.625C20.5061 3.625 25.375 8.4939 25.375 14.5ZM15.7083 21.75C15.7083 22.4173 15.1673 22.9583 14.5 22.9583C13.8327 22.9583 13.2917 22.4173 13.2917 21.75C13.2917 21.0827 13.8327 20.5417 14.5 20.5417C15.1673 20.5417 15.7083 21.0827 15.7083 21.75ZM14.5 6.25C11.9457 6.25 9.875 8.32068 9.875 10.875H11.875C11.875 9.42525 13.0503 8.25 14.5 8.25H14.614C16.0008 8.25 17.125 9.37423 17.125 10.761V11.3811C17.125 12.0917 16.6703 12.7225 15.9963 12.9471C14.5055 13.4441 13.5 14.8392 13.5 16.4105V19.3333H15.5V16.4105C15.5 15.7 15.9547 15.0692 16.6287 14.8445C18.1195 14.3476 19.125 12.9525 19.125 11.3811V10.761C19.125 8.26966 17.1053 6.25 14.614 6.25H14.5Z" fill="#FFFFE8"/>
</svg>
