<svg width="34" height="34" viewBox="0 0 34 34" fill="none" xmlns="http://www.w3.org/2000/svg">
<path fill-rule="evenodd" clip-rule="evenodd" d="M17 29.75C24.0416 29.75 29.75 24.0416 29.75 17C29.75 9.95837 24.0416 4.25 17 4.25C9.95837 4.25 4.25 9.95837 4.25 17C4.25 24.0416 9.95837 29.75 17 29.75ZM18 9.20833C18 8.65605 17.5523 8.20833 17 8.20833C16.4477 8.20833 16 8.65605 16 9.20833V16.75C16 17.4404 16.5596 18 17.25 18H21.9583C22.5106 18 22.9583 17.5523 22.9583 17C22.9583 16.4477 22.5106 16 21.9583 16H18V9.20833Z" fill="#FFFFE8"/>
</svg>
