<svg width="26" height="26" viewBox="0 0 26 26" fill="none" xmlns="http://www.w3.org/2000/svg">
<path d="M21.6667 5.33333C22.219 5.33333 22.6667 4.88562 22.6667 4.33333C22.6667 3.78105 22.219 3.33333 21.6667 3.33333V5.33333ZM5.95842 5.33333L21.6667 5.33333V3.33333L5.95842 3.33333L5.95842 5.33333ZM5.95842 10.75H14.6251V8.75H5.95842V10.75ZM4.25009 7.04167C4.25009 6.09818 5.01494 5.33333 5.95842 5.33333L5.95842 3.33333C3.91037 3.33333 2.25009 4.99361 2.25009 7.04167L4.25009 7.04167ZM2.25009 7.04167C2.25009 9.08972 3.91037 10.75 5.95842 10.75V8.75C5.01494 8.75 4.25009 7.98515 4.25009 7.04167L2.25009 7.04167Z" fill="#FFFFE8"/>
<path d="M3.25 13L3.25 7.04167" stroke="#FFFFE8" stroke-width="2"/>
<path d="M3.25 9.25H2.75V9.75L2.75 20.75V20.7829C2.74998 21.2262 2.74995 21.6081 2.79107 21.9139C2.83514 22.2417 2.93451 22.5558 3.18934 22.8107C3.44417 23.0655 3.75834 23.1649 4.0861 23.2089C4.39193 23.25 4.77384 23.25 5.21708 23.25L5.25 23.25L20.75 23.25C20.761 23.25 20.772 23.25 20.7829 23.25C21.2262 23.25 21.6081 23.25 21.9139 23.2089C22.2417 23.1649 22.5558 23.0655 22.8107 22.8107C23.0655 22.5558 23.1649 22.2417 23.2089 21.9139C23.25 21.6081 23.25 21.2262 23.25 20.7829C23.25 20.772 23.25 20.761 23.25 20.75V19.5V19H22.75H19.5C17.9812 19 16.75 17.7688 16.75 16.25C16.75 14.7312 17.9812 13.5 19.5 13.5H22.75H23.25V13V11.75L23.25 11.7171C23.25 11.2738 23.25 10.8919 23.2089 10.5861C23.1649 10.2583 23.0655 9.94417 22.8107 9.68934L22.4571 10.0429L22.8107 9.68934C22.5558 9.43451 22.2417 9.33514 21.9139 9.29107C21.6081 9.24995 21.2262 9.24997 20.7829 9.25L20.75 9.25L3.25 9.25Z" fill="#FFFFE8" stroke="#FFFFE8"/>
</svg>
