<svg width="39" height="39" viewBox="0 0 39 39" fill="none" xmlns="http://www.w3.org/2000/svg">
<path fill-rule="evenodd" clip-rule="evenodd" d="M3.25 11.25C3.25 7.47876 3.25 5.59315 4.42157 4.42157C5.59315 3.25 7.47876 3.25 11.25 3.25H27.75C31.5212 3.25 33.4069 3.25 34.5784 4.42157C35.75 5.59315 35.75 7.47876 35.75 11.25V27.75C35.75 31.5212 35.75 33.4069 34.5784 34.5784C33.4069 35.75 31.5212 35.75 27.75 35.75H11.25C7.47876 35.75 5.59315 35.75 4.42157 34.5784C3.25 33.4069 3.25 31.5212 3.25 27.75V11.25ZM12.9558 27.2215C14.8332 25.7809 17.1336 25 19.5 25C21.8664 25 24.1668 25.7809 26.0442 27.2215C27.9216 28.6621 29.2712 30.6819 29.8837 32.9677C30.0266 33.5012 29.7101 34.0495 29.1766 34.1924C28.6431 34.3354 28.0948 34.0188 27.9519 33.4853C27.4533 31.6248 26.3548 29.9807 24.8267 28.8082C23.2985 27.6356 21.4262 27 19.5 27C17.5738 27 15.7015 27.6356 14.1733 28.8082C12.6452 29.9807 11.5467 31.6248 11.0481 33.4853C10.9052 34.0188 10.3569 34.3354 9.8234 34.1924C9.28994 34.0495 8.97336 33.5012 9.1163 32.9677C9.72878 30.6819 11.0784 28.662 12.9558 27.2215ZM15.625 14.625C15.625 12.4849 17.3599 10.75 19.5 10.75C21.6401 10.75 23.375 12.4849 23.375 14.625C23.375 16.7651 21.6401 18.5 19.5 18.5C17.3599 18.5 15.625 16.7651 15.625 14.625ZM19.5 8.75C16.2553 8.75 13.625 11.3803 13.625 14.625C13.625 17.8697 16.2553 20.5 19.5 20.5C22.7447 20.5 25.375 17.8697 25.375 14.625C25.375 11.3803 22.7447 8.75 19.5 8.75Z" fill="#00B795"/>
<rect x="3.75" y="3.75" width="31.5" height="31.5" rx="3.5" stroke="#00B795"/>
</svg>
